<svg width="1024" height="1024" viewBox="0 0 1024 1024" fill="none" xmlns="http://www.w3.org/2000/svg">
<rect width="1024" height="1024" fill="#1E1E1E"/>
<g id="Cheetah">
<path id="Subtract" d="M473.633 71.582C479.9 71.6363 483.981 73.2107 488.75 77.4375C491.273 80.311 492.537 81.8719 492.93 85.0313C493.092 86.3338 492.979 87.6606 492.61 88.9203C491.443 92.9087 489.038 96.3413 486.855 99.9102C484.593 103.678 482.627 107.568 480.716 111.514C480.551 111.856 480.969 112.179 481.258 111.934C501.024 96.0961 527.068 90.8719 551.75 90.5C552.958 90.4692 554.165 90.4389 555.409 90.4072C564.755 90.406 573.905 92.2255 581.576 97.7421C582.369 98.313 583.106 98.9676 583.723 99.7257C585.052 101.357 585.632 102.743 586.026 104.63C586.369 106.274 586.396 107.984 585.981 109.611C584.182 116.661 578.428 122.255 573 127L572.79 127.14C571.863 127.758 572.23 129.198 573.34 129.297C588.668 130.764 606.597 132.623 619.512 141.781C621.223 142.892 622.556 143.666 624.045 144.191C626.564 145.079 629.338 144.642 631.78 143.561C636.213 141.599 640.346 138.872 644.492 136.419C669.933 122.027 704.444 114.441 733.062 122.062C759.877 129.868 783.37 146.393 797.16 171.076C811.878 199.04 816.296 230.576 807.375 261.125C800.688 282.666 789.017 303.178 771.062 317.312L769.672 318.45C769.247 318.798 769 319.319 769 319.868C769 320.562 769.392 321.196 770.012 321.506L772.375 322.688L774.562 323.789C776.263 324.634 777.972 325.461 779.687 326.273L782.375 327.562L784.898 328.754C785.38 329.039 785.75 329.259 786.061 329.465C788.602 331.15 789.563 334.608 789.067 337.617C788.945 338.363 788.741 339.096 788.445 339.88C787.901 341.323 787.018 342.615 785.96 343.737C778.572 351.576 768.676 355.361 758 357C755.924 357.085 754.593 359.456 755.818 361.134C757.65 363.647 759.608 366.007 761.812 368.375C764.761 371.564 767.679 374.76 770.5 378.062C774.005 382.104 777.806 385.82 781.609 389.578C784.171 392.174 786.521 394.883 788.867 397.672C790.686 399.657 792.547 401.487 794.508 403.328L796.429 405.157C797.701 406.362 798.988 407.552 800.29 408.726C802.762 411.082 804.567 413.022 805.583 415.919C806.085 417.351 806.167 418.893 806.045 420.405C806.003 420.934 805.947 421.353 805.858 421.736C805.347 423.937 803.627 425.673 801.745 426.924C800.013 428.074 798.235 428.889 796 429.75L792.875 430.984C788.367 432.577 784.73 433.121 779.922 433.098L776.406 433.088L772.75 433.062L769.047 433.049C766.845 433.04 764.644 433.029 762.442 433.016C761.251 433.009 760.411 434.182 760.803 435.307C762.924 441.515 764.781 447.63 766.062 454.062C766.229 454.863 766.396 455.664 766.567 456.489C767.564 461.407 768.354 466.326 769.041 471.296C770.608 482.5 773.427 492.989 779.191 502.828C780.54 505.194 780.883 505.795 780.97 506.778C781.03 507.45 781.548 508 782.223 508C782.697 508 783.129 508.274 783.329 508.704C784.758 511.787 785.949 514.654 786.561 517.818C787.085 520.53 786.502 523.443 784.582 525.43C782.71 527.369 780.38 528.508 777.324 529.496C765.131 532.14 753.32 527.813 742.1 523.264C740.61 522.659 738.978 523.74 738.957 525.348C738.466 544.599 734.74 562.792 726 580C725.506 581.014 725.506 581.014 725.002 582.049C724 584.105 722.974 586.148 721.937 588.188C721.634 588.8 721.33 589.412 721.017 590.043C718.458 594.875 715.337 598.436 710.408 600.476C709.484 600.858 708.507 601.096 707.517 601.236C704.503 601.663 701.833 601.653 699.12 600.324C698.218 599.882 697.429 599.246 696.689 598.566C695.082 597.088 693.539 595.562 692 594C690.93 593.131 689.859 592.264 688.781 591.406C687.802 590.626 686.377 590.804 685.609 591.793L683.75 594.188L681.922 596.543L680 599L678.109 601.543C675.795 604.238 673.406 606.089 670.5 608.125L667.656 610.133L665 612C664.336 612.496 663.672 612.992 663.009 613.489C661.948 614.285 661.843 615.836 662.784 616.771C668.322 622.269 673.856 627.772 679.384 633.28C682.226 636.112 685.071 638.943 687.92 641.769C690.667 644.494 693.409 647.224 696.147 649.958C697.195 651.002 698.245 652.044 699.296 653.084C700.764 654.537 702.225 655.998 703.686 657.459C704.52 658.289 705.356 659.12 706.216 659.976C707.453 661.38 707.833 661.81 707.949 662.609C708.059 663.37 708.623 664 709.392 664C709.78 664 710.151 664.162 710.414 664.447C711.758 665.899 711.926 666.11 713.875 668.562L716.312 671.621C716.747 672.17 717.181 672.72 717.629 673.285C719.025 675.031 720.446 676.753 721.875 678.473C739.757 700.132 751.706 723.087 759.149 748.301C763.791 764.024 783.661 770.041 788.641 754.422C790.175 749.61 791.115 744.576 791.33 739.338C791.671 723.014 786.943 707.477 782.651 691.877C780.632 684.495 778.777 677.098 777.125 669.625C776.922 668.729 776.719 667.834 776.51 666.911C772.03 646.11 772.066 622.704 777 602C777.183 601.2 777.365 600.4 777.554 599.576C782.315 579.301 790.921 560.263 804 544L805.887 541.602C807.02 540.213 808.224 538.881 809.454 537.576C809.802 537.207 810.287 537 810.794 537C811.527 537 812.191 536.567 812.487 535.896L812.797 535.195C819.673 522.649 840.883 511.645 854.17 507.289C876.021 500.939 896.617 501.728 916.863 512.527C929.136 519.742 938.055 531.035 942.398 544.58C943.384 548.541 943.447 552.373 943.375 556.438C943.364 557.273 943.353 558.109 943.342 558.97C943.184 565.08 942.581 570.396 940 576L938.559 579.133C930.882 594.487 918.28 605.005 904.612 614.914C890.69 625.01 875.436 636.774 872.531 654.93C872.177 665.834 875.16 676.89 877.875 687.375C878.599 690.246 879.302 693.122 880 696L880.667 698.691C886.364 722.305 888.386 749.265 882 773C881.801 773.768 881.603 774.537 881.398 775.329C875.413 798.174 865.543 819.075 850 837L847.855 839.512C824.647 866.053 791.304 883.415 756 886C753.647 886.062 751.292 886.087 748.937 886.062L745.527 886.035L744.863 886.026C743.734 886.01 742.706 886.673 742.254 887.707C739.685 892.405 735.639 896.114 732 900L729.863 902.336C702.255 931.424 660.232 938.732 622 940L619.27 940.101C597.385 940.814 573.302 939.378 554.01 928.37C548.86 925.431 542.5 924.463 537.938 928.25C521.513 941.039 502.299 943.897 482 945L478.078 945.219C456.739 945.778 429.795 941.879 413.555 926.727C406.899 919.335 404.564 910.863 402.545 901.555C402.337 900.597 401.082 900.349 400.531 901.16C388.612 918.191 372.367 926.692 352.309 930.746C332.98 933.669 313.142 932.643 294 929L290.816 928.414C276.862 925.221 263.147 917.637 255.355 905.422C248.826 893.154 248.023 879.226 251.914 865.895C258.789 847.57 272.29 838.158 288.615 829.719C290.697 828.643 292.064 826.549 292.168 824.208C292.374 819.564 292.586 814.919 292.8 810.275C292.891 808.266 292.982 806.256 293.07 804.246C293.198 801.357 293.331 798.467 293.465 795.578C293.503 794.68 293.542 793.782 293.582 792.856L293.703 790.31C293.736 789.572 293.769 788.835 293.804 788.075C293.937 786.666 294.173 785.338 294.484 784.003C294.665 783.228 293.862 782.569 293.15 782.925C293.051 782.975 292.942 783.006 292.832 783.017C287.641 783.535 284.487 782.948 280.327 780.566C279.337 779.999 278.419 779.31 277.631 778.486C273.907 774.593 272.063 769.954 270.375 764.75L269.148 761.047C266.454 751.931 265.642 743.313 265.688 733.812L265.7 730.19C265.812 721.405 266.664 713.494 269 705C269.331 703.696 269.659 702.391 269.984 701.086C271.474 695.216 273.148 689.431 275.073 683.7C275.507 682.408 274.51 681.073 273.148 681.141C263.83 681.411 262.101 681.461 259.946 680.27C258.825 679.65 257.85 678.8 256.932 677.907L256 677C254.723 675.888 253.608 674.535 253.25 672.88C252.417 669.029 253.593 665.151 254.938 661.344C258.153 653.561 261.996 646.297 266.188 639C267.432 636.813 268.675 634.625 269.918 632.438C270.462 631.487 271.007 630.537 271.567 629.559C272.132 628.55 272.682 627.539 273.217 626.521C274.145 624.759 273.08 622.628 271.125 622.25C251.747 617.86 235.06 604.276 224 588C222.162 584.898 220.434 581.758 218.79 578.557C218.508 578.007 217.695 578.086 217.528 578.681C216.808 581.209 216.061 583.729 215.312 586.25L214.572 588.895C213.021 594.039 211.814 597.107 207 600C204.6 601.2 202.25 601.519 199.778 601.355C197.923 601.233 196.107 600.648 194.597 599.564C190.024 596.279 187.817 591.163 185.402 585.938C184.225 583.471 182.985 581.362 181.438 579.125C171.351 563.409 169.804 542.457 173.5 524.562C173.725 523.548 173.951 522.534 174.182 521.521C174.443 520.371 173.102 519.527 172.184 520.266C170.935 521.261 169.686 522.255 168.438 523.25L166.592 524.738C158.117 531.465 156.811 532.501 152.858 533.113C151.215 533.368 149.527 533.386 147.912 532.992C145.455 532.392 143.604 531.371 141.696 529.574C140.825 528.754 140.093 527.791 139.556 526.722C135.375 518.392 136.976 506.81 138 498L138.344 494.535C140.6 475.252 149.221 458.375 159.966 442.514C160.419 441.845 159.977 440.933 159.171 440.88C131.932 439 130.429 438.897 124.418 432.921C123.681 432.189 122.988 431.401 122.448 430.513C121.2 428.462 120.505 426.421 120.055 424.142C119.687 422.276 119.677 420.318 120.368 418.546C121.656 415.242 124.116 412.908 127.102 410.543C128.27 409.749 129.445 408.964 130.625 408.188C146.431 397.309 157.907 383.649 168.656 367.956C170.476 365.308 172.332 362.686 174.188 360.062C175.074 358.805 175.915 357.605 176.69 356.345C177.242 355.447 176.417 354.399 175.395 354.656C168.776 356.215 161.935 357.792 155.113 357.453C152.385 357.318 149.664 356.413 147.677 354.538C147.074 353.969 146.565 353.357 146.105 352.607C145.102 350.976 144.738 349.023 144.911 347.117C145.632 339.197 151.159 330.519 155.226 323.277C156.343 321.289 156.131 318.843 154.762 317.02C130.448 284.015 117.687 244.963 122.366 203.776C125.606 183.277 134.445 166.143 148.313 150.875L149.913 149.112C151.101 147.84 152.338 146.614 153.586 145.401C153.851 145.144 154.207 145 154.576 145H154.658C155.399 145 156 144.399 156 143.658C156 143.243 156.193 142.85 156.522 142.598C181.064 123.782 211.084 116.633 241.738 120.496C260.768 123.522 278.865 131.906 295.625 141.125C296.347 141.52 297.068 141.916 297.812 142.323C301.546 144.428 304.879 146.665 308.211 149.367C308.591 149.665 308.921 149.923 309.214 150.148C312.229 152.455 316.43 151.303 319.81 149.574C321.151 148.888 322.483 148.176 323.812 147.438L325.623 146.439C328.136 145.052 329.276 141.984 328.092 139.369C327.937 139.026 327.762 138.645 327.552 138.19C327.188 137.404 326.96 136.557 326.914 135.691C326.759 132.77 326.927 130.569 327.954 128.298C329.012 125.957 331.112 124.276 333.428 123.165C334.54 122.632 335.673 122.154 336.938 121.688C337.983 121.301 337.984 121.301 339.051 120.906C347.912 117.963 356.794 118.336 366 119C366.695 119.047 367.391 119.094 368.107 119.143C377.363 119.851 386.843 121.95 395.395 125.769C396.645 126.327 398.098 125.49 398.188 124.125C400.207 110.403 412.049 98.735 422 90C430.867 83.4841 440.789 78.966 451 75L453.828 73.8984C459.611 72.0003 465.273 71.7069 471.313 71.625C472.078 71.6109 472.844 71.5966 473.633 71.582ZM409.24 861.896L408.938 864.312L408.623 866.693L408.34 868.988C407.991 871.721 411.193 872.212 412.486 869.779C413.097 868.629 413.684 867.468 414.234 866.286C415.333 863.923 413.961 861.314 412.428 859.206C412.263 858.978 412.08 858.723 411.875 858.438C411.183 857.538 409.749 857.924 409.603 859.05C409.481 859.998 409.36 860.947 409.24 861.896Z" fill="url(#paint0_radial_1_130)"/>
<g id="&#228;&#184;&#161;&#232;&#128;&#179;">
<path id="Subtract_2" d="M473.633 71.5816C479.9 71.6359 483.982 73.2106 488.75 77.4371C491.273 80.3103 492.536 81.8718 492.93 85.0308C493.092 86.333 492.979 87.66 492.61 88.9195C491.443 92.9078 489.038 96.3409 486.855 99.9097C484.593 103.677 482.627 107.568 480.716 111.514C480.551 111.856 480.968 112.178 481.258 111.933C501.023 96.0958 527.068 90.8715 551.75 90.4996C552.957 90.4688 554.165 90.4385 555.409 90.4068C564.754 90.4055 573.905 92.2256 581.575 97.7417C582.369 98.3124 583.105 98.9674 583.723 99.7251C585.051 101.356 585.631 102.743 586.025 104.629C586.369 106.273 586.395 107.983 585.98 109.61C584.182 116.66 578.428 122.255 573 127L572.79 127.139C571.863 127.757 572.23 129.197 573.34 129.296C588.667 130.763 606.597 132.623 619.512 141.781C621.222 142.892 622.556 143.666 624.045 144.191C626.564 145.079 629.338 144.642 631.78 143.561C636.213 141.599 640.346 138.872 644.492 136.419C669.933 122.027 704.444 114.441 733.062 122.062C759.877 129.867 783.37 146.393 797.16 171.076C811.878 199.04 816.296 230.575 807.375 261.125C800.688 282.665 789.017 303.178 771.062 317.312L769.672 318.45C769.247 318.798 769 319.319 769 319.868C769 320.561 769.392 321.195 770.012 321.505L772.375 322.687L774.562 323.789C776.262 324.633 777.972 325.46 779.687 326.273L782.375 327.562L784.898 328.753C785.379 329.038 785.751 329.259 786.06 329.464C788.602 331.15 789.563 334.608 789.067 337.617C788.944 338.363 788.74 339.095 788.444 339.879C787.9 341.323 787.018 342.614 785.96 343.737C778.572 351.576 768.676 355.36 758 357C755.924 357.085 754.594 359.456 755.817 361.134C757.649 363.646 759.608 366.007 761.812 368.375C764.761 371.564 767.68 374.759 770.5 378.062C774.004 382.104 777.806 385.82 781.609 389.578C784.171 392.173 786.521 394.883 788.867 397.671C790.686 399.657 792.547 401.487 794.508 403.328L796.429 405.157C797.701 406.362 798.988 407.552 800.29 408.725C802.761 411.081 804.566 413.022 805.582 415.919C806.084 417.35 806.166 418.893 806.045 420.405C806.002 420.934 805.946 421.352 805.857 421.735C805.347 423.937 803.626 425.672 801.744 426.923C800.013 428.074 798.235 428.889 796 429.75L792.875 430.984C788.367 432.576 784.73 433.121 779.922 433.097L776.406 433.087L772.75 433.062L769.047 433.048C766.845 433.04 764.644 433.029 762.442 433.015C761.252 433.008 760.412 434.182 760.803 435.306C762.924 441.514 764.781 447.63 766.062 454.062C766.229 454.863 766.396 455.664 766.567 456.489C767.564 461.407 768.354 466.326 769.041 471.295C770.608 482.499 773.427 492.989 779.191 502.828C780.54 505.193 780.882 505.795 780.97 506.777C781.029 507.45 781.547 507.999 782.223 508C782.696 508 783.128 508.274 783.328 508.704C784.757 511.786 785.949 514.653 786.56 517.817C787.085 520.529 786.501 523.442 784.582 525.429C782.709 527.368 780.38 528.507 777.324 529.496C765.131 532.139 753.319 527.813 742.1 523.263C740.61 522.659 738.978 523.74 738.957 525.347C738.466 544.598 734.74 562.792 726 580C725.506 581.013 725.506 581.014 725.002 582.048C724 584.105 722.974 586.148 721.937 588.187C721.634 588.799 721.33 589.412 721.017 590.043C718.458 594.874 715.336 598.435 710.407 600.475C709.483 600.857 708.506 601.096 707.517 601.236C704.503 601.662 701.832 601.653 699.119 600.324C698.217 599.882 697.428 599.246 696.689 598.566C695.082 597.088 693.539 595.562 692 594C690.931 593.131 689.858 592.264 688.78 591.406C687.801 590.626 686.376 590.804 685.609 591.793L683.75 594.187L681.922 596.543L680 599L678.109 601.543C675.795 604.238 673.406 606.089 670.5 608.125L667.656 610.132L665 612C664.336 612.495 663.672 612.992 663.009 613.489C661.948 614.284 661.843 615.836 662.784 616.77C668.322 622.268 673.856 627.772 679.384 633.28C682.226 636.112 685.072 638.942 687.92 641.768C690.667 644.493 693.409 647.224 696.147 649.958C697.195 651.001 698.245 652.043 699.296 653.084C700.764 654.537 702.225 655.998 703.685 657.459C704.52 658.289 705.356 659.12 706.216 659.975C707.453 661.379 707.832 661.81 707.948 662.609C708.059 663.37 708.623 663.999 709.392 664C709.779 664 710.15 664.162 710.413 664.446C711.757 665.898 711.926 666.11 713.875 668.562L716.312 671.621C716.747 672.169 717.181 672.719 717.629 673.285C719.024 675.031 720.446 676.753 721.875 678.472C739.756 700.131 751.706 723.086 759.149 748.3C763.791 764.023 783.661 770.041 788.641 754.421C790.175 749.61 791.114 744.575 791.33 739.337C791.671 723.014 786.943 707.476 782.651 691.877C780.632 684.495 778.776 677.097 777.125 669.625C776.922 668.729 776.719 667.833 776.51 666.911C772.03 646.11 772.066 622.704 777 602C777.183 601.2 777.365 600.4 777.554 599.576C782.315 579.301 790.921 560.263 804 544L805.887 541.601C807.02 540.212 808.224 538.881 809.454 537.576C809.801 537.207 810.286 537 810.793 537C811.526 537 812.191 536.567 812.487 535.896L812.797 535.195C819.673 522.649 840.883 511.645 854.17 507.289C876.021 500.939 896.617 501.727 916.863 512.527C929.136 519.741 938.055 531.035 942.398 544.58C943.384 548.541 943.447 552.373 943.375 556.437C943.364 557.272 943.353 558.109 943.342 558.969C943.184 565.079 942.581 570.396 940 576L938.559 579.132C930.882 594.486 918.28 605.005 904.612 614.914C890.69 625.01 875.436 636.774 872.531 654.929C872.177 665.834 875.16 676.89 877.875 687.375C878.599 690.246 879.302 693.122 880 696L880.667 698.691C886.364 722.304 888.385 749.265 882 773C881.801 773.768 881.603 774.537 881.398 775.329C875.413 798.173 865.543 819.074 850 837L847.855 839.511C824.647 866.052 791.304 883.414 756 886C753.647 886.061 751.291 886.087 748.937 886.062L745.527 886.035L744.862 886.026C743.734 886.01 742.706 886.673 742.254 887.707C739.685 892.404 735.639 896.114 732 900L729.863 902.335C702.255 931.424 660.232 938.732 622 940L619.269 940.1C597.385 940.814 573.301 939.378 554.01 928.37C548.86 925.431 542.5 924.463 537.937 928.25C521.513 941.039 502.299 943.897 482 945L478.078 945.218C456.739 945.777 429.795 941.879 413.555 926.726C406.899 919.335 404.564 910.863 402.545 901.555C402.337 900.598 401.082 900.349 400.531 901.16C388.612 918.191 372.366 926.692 352.308 930.746C332.98 933.668 313.141 932.643 294 929L290.816 928.414C276.862 925.22 263.147 917.636 255.355 905.421C248.827 893.154 248.023 879.226 251.914 865.894C258.789 847.57 272.29 838.158 288.615 829.718C290.696 828.642 292.064 826.548 292.168 824.208C292.374 819.563 292.586 814.919 292.8 810.275C292.891 808.265 292.982 806.255 293.07 804.246C293.198 801.356 293.331 798.467 293.465 795.578C293.503 794.68 293.542 793.781 293.582 792.856L293.703 790.309C293.736 789.572 293.769 788.834 293.804 788.075C293.937 786.666 294.173 785.337 294.484 784.002C294.664 783.227 293.861 782.568 293.149 782.924C293.05 782.974 292.941 783.006 292.831 783.017C287.64 783.535 284.487 782.947 280.326 780.565C279.337 779.999 278.418 779.309 277.631 778.486C273.907 774.593 272.062 769.954 270.375 764.75L269.148 761.046C266.454 751.931 265.642 743.312 265.687 733.812L265.7 730.19C265.812 721.405 266.663 713.494 269 705C269.33 703.696 269.658 702.391 269.984 701.085C271.474 695.215 273.148 689.431 275.072 683.7C275.506 682.407 274.51 681.073 273.148 681.14C263.83 681.41 262.1 681.46 259.946 680.269C258.825 679.649 257.85 678.8 256.932 677.907L256 677C254.723 675.887 253.608 674.534 253.25 672.879C252.417 669.028 253.593 665.151 254.938 661.343C258.153 653.561 261.996 646.296 266.187 639C267.431 636.813 268.675 634.625 269.918 632.437C270.462 631.487 271.007 630.537 271.567 629.558C272.132 628.55 272.681 627.539 273.217 626.521C274.144 624.759 273.08 622.628 271.125 622.25C251.747 617.859 235.059 604.275 224 588C222.162 584.898 220.434 581.758 218.79 578.556C218.508 578.008 217.695 578.086 217.528 578.68C216.808 581.209 216.06 583.729 215.312 586.25L214.572 588.894C213.021 594.038 211.814 597.107 207 600C204.6 601.199 202.249 601.519 199.777 601.355C197.923 601.232 196.106 600.647 194.597 599.563C190.024 596.279 187.816 591.162 185.402 585.937C184.225 583.471 182.985 581.362 181.437 579.125C171.351 563.409 169.804 542.457 173.5 524.562C173.725 523.548 173.951 522.533 174.182 521.52C174.442 520.371 173.102 519.527 172.183 520.265C170.935 521.26 169.686 522.255 168.437 523.25L166.592 524.738C158.117 531.464 156.811 532.5 152.857 533.113C151.215 533.367 149.527 533.386 147.912 532.992C145.455 532.391 143.604 531.37 141.696 529.574C140.825 528.754 140.092 527.791 139.556 526.722C135.374 518.392 136.976 506.809 138 498L138.344 494.535C140.6 475.251 149.221 458.375 159.966 442.513C160.419 441.844 159.977 440.933 159.171 440.879C131.933 439 130.429 438.896 124.418 432.92C123.681 432.188 122.987 431.4 122.447 430.512C121.199 428.461 120.504 426.421 120.055 424.142C119.686 422.276 119.677 420.317 120.368 418.545C121.656 415.243 124.116 412.908 127.101 410.543C128.27 409.749 129.445 408.964 130.625 408.187C146.431 397.309 157.907 383.648 168.656 367.956C170.475 365.307 172.332 362.685 174.187 360.062C175.074 358.805 175.915 357.605 176.689 356.344C177.241 355.446 176.417 354.399 175.394 354.656C168.776 356.215 161.934 357.792 155.112 357.453C152.385 357.317 149.663 356.412 147.677 354.538C147.073 353.969 146.565 353.356 146.104 352.607C145.102 350.976 144.737 349.022 144.911 347.116C145.632 339.197 151.158 330.519 155.225 323.277C156.342 321.289 156.131 318.842 154.762 317.019C130.448 284.015 117.687 244.962 122.366 203.776C125.606 183.277 134.445 166.143 148.312 150.875L149.913 149.112C151.101 147.84 152.337 146.614 153.586 145.401C153.851 145.143 154.207 145 154.576 145H154.657C155.399 145 156 144.398 156 143.657C156 143.242 156.192 142.849 156.521 142.597C181.064 123.781 211.084 116.633 241.738 120.496C260.767 123.522 278.865 131.906 295.625 141.125C296.346 141.52 297.068 141.916 297.811 142.323C301.546 144.427 304.879 146.665 308.211 149.367C308.591 149.664 308.92 149.923 309.214 150.148C312.228 152.455 316.43 151.303 319.809 149.574C321.151 148.887 322.483 148.176 323.812 147.437L325.623 146.439C328.136 145.052 329.276 141.983 328.092 139.368C327.937 139.026 327.762 138.644 327.552 138.19C327.188 137.403 326.96 136.556 326.914 135.691C326.759 132.77 326.927 130.568 327.953 128.297C329.011 125.957 331.112 124.275 333.428 123.165C334.539 122.632 335.673 122.153 336.937 121.687C337.983 121.3 337.984 121.3 339.051 120.906C347.912 117.963 356.794 118.336 366 119C366.695 119.046 367.391 119.094 368.107 119.142C377.363 119.851 386.843 121.95 395.395 125.768C396.645 126.326 398.098 125.49 398.187 124.125C400.207 110.403 412.049 98.7344 422 89.9996C430.866 83.4838 440.789 78.9655 451 74.9996L453.828 73.898C459.611 71.9999 465.273 71.7065 471.312 71.6246C472.078 71.6105 472.844 71.5961 473.633 71.5816ZM461 98.9996C461.492 97.5239 460.389 96.0101 458.848 96.2164C448.382 97.6188 437.333 105.56 430.25 112.25C419.942 123.11 415.022 134.906 413.394 149.582C413.139 151.792 412.795 153.931 412.382 156.087C412.196 157.059 411.136 157.578 410.247 157.145C388.101 145.925 387.25 145.494 364.794 142.385C363.542 142.213 362.55 143.443 363 144.625C363.909 147.694 364.554 150.332 363.995 153.106C363.583 155.15 362.266 156.953 360.43 157.941C358.395 159.035 356.177 159.376 353.625 159.875C345.845 161.615 339.123 164.388 332 168C330.699 168.629 329.397 169.257 328.094 169.882C311.695 177.815 295.674 187.244 283.226 200.752C283.081 200.911 283 201.119 283 201.335C283 201.726 283.265 202.069 283.643 202.169L285.668 202.699C297.117 205.914 297.602 206.051 300.588 210.398C300.859 210.793 301.055 211.24 301.159 211.708C301.312 212.399 301.458 213.093 301.596 213.789C301.826 214.957 300.944 216.036 299.754 216.078C290.85 216.557 282.662 218.341 274.06 220.503C270.997 221.242 267.905 221.83 264.812 222.437C257.729 223.918 251.118 226.269 244.38 228.853C244.151 228.941 244 229.162 244 229.407C244 229.734 244.265 229.999 244.593 230H255.066C256.22 230 257.246 230.739 257.611 231.834C257.858 232.574 258.415 233.17 259.138 233.463C259.743 233.709 260.351 233.953 260.958 234.195C262.285 234.723 263.463 235.615 264.192 236.842C264.616 237.555 264.832 238.071 264.963 238.74C265.29 240.418 265.015 242.196 264.185 243.692C262.158 247.349 258.859 248.697 254.687 250.937C252.845 251.983 251.004 253.031 249.164 254.082C248.271 254.582 247.378 255.084 246.458 255.6C234.372 262.483 222.307 271.035 212.781 281.21C211 283 211 283 208.543 284.921C195.519 295.564 186.17 312.905 177.986 327.321C176.909 329.154 178.385 331.471 180.481 331.121C184.266 330.487 188.035 329.791 191.793 328.976C208.608 325.351 210.87 324.863 216.866 325.584C218.929 325.831 221.62 326.48 222.803 328.189C223.775 329.595 223.4 331.139 222.79 332.736C221.876 335.127 220.341 336.969 218.562 339.125C218.106 339.699 217.649 340.273 217.179 340.865C215.097 343.471 212.97 346.035 210.824 348.589C205.985 354.358 201.604 360.315 197.312 366.5C175.408 398.061 175.407 398.061 163.726 409.16C161.866 410.742 161.983 411.432 160.706 412.788C160.572 412.929 160.457 413.09 160.376 413.267C160.213 413.619 159.931 413.902 159.581 414.07C159.412 414.151 159.256 414.226 159.113 414.298C157.078 415.328 158.661 418.137 160.941 418.124C170.892 418.062 179.41 415.985 188.324 410.973C189.447 410.342 190.606 409.767 191.826 409.354C193.145 408.907 194.386 408.547 195.624 408.348C199.786 407.68 203.963 410.867 203.925 415.083C203.907 416.991 203.442 418.987 203.012 421.457C199.915 432.301 190.774 441.1 183.675 449.585C173.383 461.977 163.886 475.802 160.398 491.478C159.333 496.27 164.591 499.279 168.656 496.527C169.937 495.664 171.219 494.8 172.5 493.937L174.433 492.623C179.918 488.938 184.898 485.75 191.625 485.125L192.638 485.014C193.819 484.885 195.019 484.813 196.187 485.03C196.487 485.085 196.768 485.151 197.034 485.229C200.123 486.135 201.637 489.619 201.68 492.838C201.749 498.162 199.912 503.701 198.625 508.687C196.588 516.624 195.305 524.394 194.625 532.562C194.541 533.524 194.457 534.486 194.37 535.477C193.969 541.008 193.745 546.532 194.517 551.877C195.375 557.808 201.809 558.727 204.625 553.437C207.858 547.528 211.574 542.724 216.312 537.89C218.198 536.195 220.059 533.501 222.556 533.943C223.489 534.108 224.39 534.429 225.404 534.962C226.314 535.441 227.065 536.179 227.612 537.049C229.149 539.496 229.445 540.92 229.875 544.25C232.141 561.176 242.389 580.551 256 591C260.022 593.611 263.99 595.967 268.239 597.633C273.052 599.52 277.443 595.064 275.562 590.25C274.954 588.524 274.475 586.76 274.088 584.972C272.659 578.369 280.522 574.53 284.812 579.75C297.253 594.439 309.534 605.067 329.331 607.39C332.844 607.663 336.356 607.878 339.875 608.062C342.247 608.191 344.62 608.328 346.992 608.472C348.027 608.526 349.063 608.58 350.129 608.636C352.025 608.876 353.651 609.288 355.288 609.879C356.969 610.487 358 612.147 358 613.934C358 615.788 356.882 617.469 355.141 618.103C341.346 623.126 327.3 623.867 313.047 619.341C312.351 619.12 311.691 618.794 311.084 618.389L309.935 617.624C309.325 617.217 308.608 617 307.875 617C306.696 617 305.567 617.546 304.898 618.517C304.298 619.39 303.987 619.999 303 621.937C300.015 627.298 296.812 632.438 293.437 637.562C289.202 643.195 287.329 645.686 285.833 648.756C283.513 653.52 287.643 658.818 292.937 658.625L296.033 658.531C297.976 658.456 299.865 658.333 301.728 658.152C306.705 657.668 310.589 662.654 307.812 666.812C300.628 678 295.369 690.147 292 703L291.168 706.117C290.405 709.072 289.673 712.023 289 715C288.828 715.694 288.656 716.389 288.478 717.105C286.824 724.335 286.701 731.355 286.75 738.75L286.726 742.363L286.734 745.859L286.741 748.999C287.1 753.166 292.236 754.012 294.518 750.507C295.887 748.405 297.188 746.251 298.5 744.062C299.447 742.49 300.395 740.918 301.344 739.347C301.793 738.603 302.244 737.858 302.707 737.09C303.856 735.233 305.048 733.423 306.281 731.621C307.099 730.481 307.554 729.848 307.884 729.228C308.768 727.566 310.199 726.164 311.781 727.185C312.372 727.567 313.135 728.354 313.364 729.019C315.586 735.489 316.123 742.158 316.145 748.995C316.149 749.656 316.152 750.317 316.155 750.999C316.165 753.169 316.167 755.34 316.168 757.511C316.171 759.045 316.174 760.579 316.178 762.113C316.184 765.329 316.186 768.547 316.185 771.763C316.185 775.022 316.192 778.282 316.206 781.541C316.335 812.646 316.334 812.647 315.176 824.707C315.106 825.446 315.037 826.185 314.966 826.947C313.603 838.645 313.473 839.758 310.296 842.598C309.566 843.25 308.777 843.834 307.935 844.334C306.326 845.289 304.684 846.146 303 847C301.648 847.809 300.302 848.631 298.965 849.464C296.95 850.701 294.935 851.938 292.912 853.162C286.337 857.219 280.442 861.375 276.625 868.25L275.164 870.828C272.985 874.893 272.805 877.563 272.75 882.25L272.672 886.203C273.047 890.546 274.158 893.575 276.734 896.756C277.345 897.51 278.059 898.173 278.807 898.791L279.437 899.312L281.183 900.8C282.397 901.602 283.48 902.096 284.677 902.457C285.872 902.817 287.02 901.861 287.043 900.613C287.415 892.124 288.432 882.331 294.351 875.83C295.071 875.04 295.915 874.369 296.84 873.834C298.526 872.857 299.986 872.357 301.844 872.137C303.26 871.969 304.833 872.152 306.04 872.912C307.676 873.941 308.196 876.011 308.257 877.943C308.363 881.343 307.614 883.649 305.724 886.56C304.645 888.22 303.588 889.935 303.229 891.881C302.702 894.743 302.772 897.683 302.75 900.625L302.687 902.687C302.607 906.067 304.457 909.77 307.819 910.127C308.586 910.209 309.475 910.21 310.668 910.195L313.373 910.175L316.187 910.125L319.037 910.097C320.664 910.081 322.291 910.06 323.918 910.035C324.989 910.018 325.77 909.016 325.527 907.972C323.624 897.244 324.13 888.7 329.687 879.257C331.163 876.75 333.984 875.013 336.754 875.903C337.523 876.15 338.253 876.46 338.985 876.862C341.084 878.013 342.452 880.296 342.258 882.681C342.117 884.408 341.533 885.934 340.5 888C339.496 890.107 338.881 892.539 338.585 895.086C337.554 903.953 346.284 910.278 354.903 907.958C361.846 906.088 368.356 902.869 374 898C379.947 891.488 382.183 885.228 383.5 876.562C383.627 875.738 383.753 874.913 383.884 874.063C386.357 857.314 387.894 840.432 386.699 823.507C386.24 816.993 386.156 810.975 386.732 804.802C387.164 800.189 392.213 797.09 396.181 799.483C397.419 800.23 397.928 800.928 398.55 802.113C398.833 802.652 399.384 802.999 399.993 803C400.608 803 401.17 803.351 401.439 803.905L401.836 804.722C403.995 808.946 406.539 812.947 409 817L410.926 820.226C416.238 829.035 420.759 835.736 427.998 841.375C431.736 844.286 437.208 842.909 437.882 838.219C438.026 837.246 438.17 836.273 438.318 835.27C438.542 833.686 438.541 833.686 438.769 832.07C439.105 829.806 439.44 827.541 439.775 825.277C440.291 821.731 440.804 818.183 441.314 814.636C443.03 802.782 444.799 790.978 447.512 779.304C447.7 778.475 447.889 777.644 448.083 776.79C449.274 771.921 450.74 766.877 453.604 762.771C455.509 760.041 458.734 758.595 462.062 758.625L464.316 758.605C464.586 758.603 464.856 758.625 465.122 758.671C466.321 758.881 467.416 759.555 467.962 760.643C469.394 763.5 469.34 765.965 469.312 769.5C469.307 770.259 469.302 771.018 469.296 771.8C469.112 780.699 467.618 789.267 466 798C465.658 799.883 465.317 801.768 464.975 803.652C463.378 812.446 461.707 821.226 460 830L459.417 833.021C456.934 845.711 454.688 856.608 444.269 865.109C435.933 872.054 426.729 883.314 425.684 894.335C425.325 900.467 425.261 901.56 426.639 905.544C427.344 907.584 428.516 909.433 430 911L431.596 912.904C431.823 913.175 432.074 913.428 432.355 913.642C433.768 914.716 434.961 915.192 436.396 915.522C437.714 915.825 438.914 914.707 438.824 913.359C438.483 904.359 439.57 896.01 444.849 888.752C445.846 887.38 447.082 886.153 448.588 885.372C448.937 885.19 449.265 885.06 449.654 884.947C451.255 884.482 453.239 884.435 454.773 885.087C456.486 885.816 457.398 887.46 457.888 889.256C458.027 889.768 458.123 890.264 458.181 890.766C458.499 893.549 457.24 896.232 455.758 898.608C455.493 899.033 455.227 899.458 454.961 899.882C452.882 904.463 452.535 910.02 453.068 915.267C453.452 919.043 455.682 922.149 459.473 922.316L462.197 922.443L465.062 922.562L467.939 922.693C469.238 922.752 470.537 922.809 471.836 922.865C473.473 922.935 474.764 921.49 474.512 919.871C473.552 912.611 473.281 905.348 475.255 898.334C475.696 896.767 476.456 895.315 477.358 893.961L478 893C479.45 891.308 480.082 890.551 480.574 890.05C481.701 888.905 483.369 888.5 484.975 888.5H485.395C486.124 888.5 486.845 888.648 487.515 888.935C489.078 889.605 490.274 890.969 490.531 892.65C491.011 895.791 490.749 898.301 489.562 901.812C488.926 903.732 488.467 905.569 488.182 907.363C486.719 916.566 496.666 922.588 505.63 920.041C514.934 917.397 523.142 912.934 530.09 904.66C542.525 887.341 546.301 865.952 546.336 845.093C546.342 843.679 546.349 842.264 546.356 840.849C546.368 837.898 546.372 834.946 546.371 831.995C546.371 829.012 546.385 826.03 546.412 823.047C546.551 807.698 546.645 792.779 542.862 777.783C542.323 775.416 542.048 773.339 542.05 771.339C542.054 765.562 548.54 760.312 553.084 763.88C553.657 764.331 554.233 764.871 554.71 765.422C557.822 769.024 559.976 772.618 561.658 777.067C561.869 777.624 562.398 777.999 562.993 778C563.595 777.999 564.13 777.616 564.324 777.046L564.848 775.507C570.575 759.559 580.639 747.044 595 738L596.801 736.718C598.802 735.381 600.838 734.552 602.933 734.027C609.093 732.481 616.19 735.851 616.426 742.198C616.467 743.303 616.346 744.566 615.957 745.601C614.851 748.54 612.62 750.597 610.211 752.696C609.405 753.398 608.555 754.054 607.63 754.589C606.796 755.072 606.316 755.241 604.707 755.808C594.56 760.274 587.841 770.446 583 780C581.927 783.117 581.894 785.964 581.937 789.25L581.939 789.443C581.955 790.948 582.915 792.28 584.338 792.771C584.775 792.922 585.238 792.984 585.7 792.965C587.233 792.902 588.654 792.924 590.03 793.047C594.734 793.468 596.328 799.221 593.208 802.766C592.648 803.403 592.791 803.377 592.451 804.154C590.378 808.894 590.16 814.187 590.768 819.301C590.902 820.434 591.178 821.544 591.552 822.622C593.295 827.643 595.706 833.42 600.016 836.257C600.16 836.352 600.317 836.426 600.48 836.482L600.983 836.654C601.591 836.861 602 837.431 602 838.073C602 838.641 602.318 839.168 602.843 839.385C604.804 840.197 606.445 840.266 608.75 840.437C612.803 840.813 616.165 841.591 620 843C621.852 843.486 623.707 843.965 625.562 844.437C630.667 845.847 632.466 846.344 633.794 847.168C635.384 848.153 636.337 850.289 636.654 852.132C637.108 854.77 636.003 857.31 633.548 858.375C631.082 859.443 628.464 859.419 625.262 859.406C624.504 859.417 623.745 859.428 622.965 859.439C620.539 859.473 618.113 859.488 615.687 859.5C601.236 859.567 587.811 860.473 574.125 865.625L570.633 866.914C567.984 867.799 566.738 870.459 566.308 873.219C566.271 873.451 566.235 873.684 566.2 873.916C565.224 880.165 563.52 885.924 561.368 891.606C558.976 897.923 559.929 905.589 565.572 909.301C568.551 911.26 571.748 912.542 575.837 912.903C577.633 913.061 579.128 911.646 579.297 909.851C580.177 901.331 581.157 893.584 585.604 886.424C586.66 884.726 588.087 883.245 589.876 882.352C591.378 881.603 592.809 881.24 594.549 881.089C596.155 880.951 597.909 881.047 598.961 882.268C599.788 883.229 600.099 884.646 600.148 885.914C600.298 889.78 599.393 892.542 597.495 896.093C597.172 896.697 596.754 897.245 596.27 897.729C595.436 898.564 594.787 899.581 594.529 900.733C593.827 903.87 593.907 906.939 593.937 910.25L593.965 914.078C593.984 915.703 595.296 917.018 596.922 917.04C625.438 917.416 652.573 917.259 680 908L683.41 906.851C707.861 897.571 725.209 878.75 736.144 855.371C745.015 835.238 746.241 815.203 746.046 793.697C746.031 792.076 744.243 791.105 742.871 791.968C738.174 794.642 733.782 794.771 728.666 794.204C727.556 794.08 726.455 793.852 725.411 793.454C719.239 791.098 715.138 786.703 711.312 781.187L709.48 778.663C709.178 778.247 708.695 778 708.181 778C707.478 777.999 706.854 777.543 706.672 776.865C705.184 771.321 704.966 764.401 706.177 758.672C706.465 757.307 706.989 755.998 707.755 754.832C710.22 751.077 713.755 748.06 717.901 746.402C718.623 746.113 719.444 745.962 720.22 745.919C727.413 745.524 734.118 739.268 730.982 732.782C730.332 731.436 729.629 730.078 728.875 728.687C728.382 727.764 727.888 726.84 727.38 725.888C723.63 718.96 719.634 712.379 715 706L712.894 703.035C705.71 693.154 697.512 684.416 688.824 675.851C686.384 673.375 684.118 670.768 681.848 668.136C674.384 659.505 666.751 651.31 658.09 643.878C655.849 641.863 653.777 639.734 651.687 637.562C644.401 629.886 643.38 628.81 636.184 626.228C633.548 625.283 630.671 625.158 628 626C625.878 626.511 623.752 627.01 621.625 627.5L618.539 628.281C600.076 632.03 575.491 632.992 558.588 622.987C557.525 622.358 556.584 621.505 556.05 620.391C554.894 617.984 554.891 615.6 554.957 612.876C554.983 611.833 555.833 610.992 556.876 610.982C563.349 610.918 569.822 610.833 576.295 610.737C578.707 610.704 581.119 610.676 583.531 610.653C587.009 610.619 590.487 610.567 593.965 610.511C595.034 610.505 596.104 610.498 597.205 610.492C607.27 610.296 614.519 608.23 622.062 601.5L623.818 600.027C625.065 598.946 626.244 597.788 627.401 596.611C627.786 596.22 628 595.693 628 595.144C628 593.967 628.966 593.018 630.143 593.04L631.375 593.062C633.822 593.205 636.657 595.416 636.414 597.854L636.386 598.135C636.187 600.125 637.88 601.787 639.803 601.238C649.254 598.54 658.785 590.16 664.945 583.585C668.286 579.381 670.782 574.878 673 570L673.342 569.332C673.862 568.316 674.314 567.26 674.576 566.149C675.647 561.607 675.452 556.897 675.566 552.216L675.656 549.589C675.684 548.412 675.684 548.412 675.713 547.21C675.864 546.046 676.117 545.057 676.474 544.111C677.214 542.145 679.358 541.17 681.442 541.43L685.069 541.883C685.601 541.95 686 542.402 686 542.937C686 543.523 686.475 543.999 687.061 544H687.243C687.708 544 688.135 544.259 688.344 544.673C689.591 547.151 690.648 549.639 691.625 552.25C693.476 556.954 695.652 561.509 697.922 566.019C700.238 570.622 705.648 572.389 707.957 567.782C718.386 545.585 717.269 523.399 711.409 499.948C709.791 493.44 715.458 487.591 722.083 488.631C729.069 489.729 730.258 490.841 734.184 494.511C739.02 498.474 746.175 500.006 752.35 501.572C753.066 501.753 753.707 501.078 753.484 500.375C750.079 489.363 747.276 478.324 745.5 466.937C744.213 458.764 742.393 450.933 740 443L738.984 439.519C735.82 429.658 730.692 421.546 725 413C723.64 410.941 722.285 408.879 720.937 406.812L719.277 404.332C717.332 400.779 720.719 397.017 724.632 398.065C728.741 399.166 732.479 401.028 736.633 403.222C740.04 405.021 743.466 406.652 747.012 408.156C748.301 408.703 749.577 409.285 750.832 409.906C757 412.711 763.392 412.311 770.019 412.039C770.566 412.016 771 411.557 771 411.009C771 410.457 770.552 410 770 410C769.448 409.999 769 409.552 769 409V408.568C769 408.203 768.86 407.852 768.608 407.587C767.113 406.019 765.569 404.494 764 403C758.965 398.115 754.106 393.26 749.75 387.75C742.434 378.602 733.904 370.291 724.992 362.699C717.804 356.567 710.986 350.315 705 343C704.253 342.097 704.252 342.096 703.489 341.175C701.738 339.059 699.992 336.936 698.25 334.812C697.683 334.123 697.115 333.433 696.53 332.722C692.349 327.581 695.497 320.109 701.995 321.408C704.441 321.897 706.895 322.755 709.5 324C710.513 324.463 710.514 324.464 711.548 324.936C719.122 328.436 726.572 332.202 734 336C737.276 337.637 741.446 337.474 745.276 336.803C746.994 336.503 747.644 334.44 746.5 333.125C745.333 331.75 744.166 330.375 743 329L741.172 326.906C736.927 321.867 733.548 316.647 730.312 310.937C725.012 301.637 718.752 293.289 712 285L709.547 281.945C702.448 273.615 693.797 267.401 685 261L682.553 259.205C673.528 252.442 673.527 252.442 664.101 246.273C662.385 245.233 661.337 244.279 660.501 243.01C659.281 241.159 659.091 237.078 659.432 234.888C659.942 231.606 662.8 231.788 666.113 231.541C666.596 231.505 667.08 231.47 667.562 231.437L671.191 231.183C672.369 231.106 672.963 229.735 672.189 228.843C664.759 220.284 656.332 213.994 646.562 207.937C644.417 206.594 642.272 205.249 640.129 203.902C639.094 203.252 638.058 202.602 636.992 201.932C634.176 200.113 631.444 198.214 628.719 196.261C624.621 193.355 620.476 191.011 615.937 188.875C614.551 188.205 613.166 187.532 611.781 186.859L609.805 185.9C607.462 184.731 605.199 183.441 602.937 182.125C600.351 180.641 598.013 179.616 595.125 178.875C593.494 178.418 592.447 178.125 591.704 177.817C589.266 176.806 588.516 173.642 588.795 171.017C588.915 169.893 589.232 168.837 589.803 167.617C590.194 166.78 590.816 166.005 591.532 165.422C596.072 161.726 597.559 155.665 591.992 153.856C588.544 152.736 584.884 152.109 581.664 151.711C570.777 150.923 561.278 152.308 551 156C549.854 156.41 548.773 156.752 547.722 157.032C541.781 158.612 535.693 154.882 535.92 148.739C535.959 147.675 536.113 146.476 536.358 145.44C536.855 143.345 537.397 141.329 538.062 139.25C538.283 138.554 538.503 137.858 538.73 137.141C541.693 128.316 546.779 121.188 552.816 114.211C552.934 114.075 553 113.9 553 113.719C552.999 113.317 552.682 112.987 552.28 112.973C530.529 112.212 508.182 115.913 491.523 131.285C486.749 136.322 483.352 141.48 480.387 147.75C479.762 148.763 479.22 149.495 478.616 150.068C476.646 151.939 473.56 151.908 471 151C469.09 150.363 467.523 148.954 466.789 147.079C466.633 146.681 466.48 146.282 466.329 145.882C466.108 145.296 465.837 144.729 465.514 144.192L464.074 141.796C461.971 138.158 460.727 134.45 459.75 130.375C459.499 129.335 459.499 129.334 459.242 128.273C456.931 118.012 457.323 108.868 461 98.9996ZM411.875 858.437C411.183 857.538 409.748 857.924 409.602 859.049C409.48 859.998 409.359 860.947 409.24 861.896L408.937 864.312L408.623 866.693L408.34 868.988C407.99 871.721 411.192 872.212 412.485 869.779C413.096 868.629 413.684 867.467 414.233 866.286C415.332 863.923 413.96 861.314 412.428 859.206C412.262 858.978 412.08 858.723 411.875 858.437ZM816 565C800.709 587.136 794.749 613.263 796 640C798 638 798 637.999 799.226 636.23C800.722 634.046 802.273 632.007 804 630C808.945 625.554 813.222 624.458 819.801 624.726C825.379 625.42 830.802 628.37 834.41 632.687C838.004 638.87 838.14 646.253 836.492 653.113C834.009 659.549 829.622 664.462 823.387 667.312C818.196 668.807 811.799 669.214 806.777 667.035L805 666C802.833 665.125 802.832 665.124 801 664L800 661C799 662.999 798.999 663 799.281 665.284C799.476 666.253 799.666 667.195 799.855 668.136C800.07 669.212 800.278 670.257 800.486 671.301C800.84 673.011 800.841 673.012 801.187 674.687C802.382 680.567 803.545 686.453 805.086 692.253C811.329 714.602 817.245 740.707 809.125 763.32L808 766C803.962 776.923 797.559 786.996 789.562 795.437L787 798C785.355 799.653 783.702 801.295 782.027 802.918C781.444 803.477 780.878 804.019 780.312 804.562C777.256 807.566 774.884 809.781 770.605 810.839L768 811C767.271 820.982 765.29 830.206 762.5 839.812C760.207 847.505 758.262 855.064 757 863C764.092 862.409 771.353 861.671 778 859C780.507 855.149 780.507 855.149 780 845C778.748 842.841 778.747 842.84 778.875 839.437C778.603 836.17 778.603 836.169 780 835C783.284 834.88 786.018 834.509 789 836C792.84 840.537 793.54 844.134 793.922 850.023L794 852C798.959 852 798.96 852 811.462 843.365C812.396 842.707 812.396 842.707 813.312 842.062C817.984 838.822 821.507 835.502 825 831L823.355 830.449L821.187 829.687C818.876 828.891 817.265 828.237 815.437 826.601L814 825C812.225 823.285 810.721 821.565 809.242 819.585C806.762 814.422 807.143 808.561 808 803C811.075 797.018 814.911 792.044 821 789C826.283 788.313 831.216 788.448 836 791V793L838 794C840.863 797.817 841.748 801.621 842.668 806.207L843 808C846.192 805.227 848.092 802.31 849.942 798.519C850.28 797.79 850.609 797.082 850.937 796.375C859.496 777.948 863.882 757.312 863 737H862C860.663 740.16 858.854 742.88 856.605 745.472C852.238 749.627 847.329 752.285 841.25 752.437C835.347 752.058 831.259 750.149 827 746C822.695 740.087 822.266 734.147 823 727C827.236 718.528 831.887 713.302 841 710C845.942 709.244 850.524 709.383 854.824 712.191L856.687 713.562L858.574 714.941L860 716C859.841 709.137 858.803 702.675 857.292 695.998C857.065 695.021 856.845 694.072 856.625 693.125C855.604 688.718 854.587 684.31 853.473 679.926C851.841 673.581 850.83 667.512 850.702 660.967C850.697 660.15 850.692 659.356 850.687 658.562C850.567 642.332 858.396 629.932 867.898 617.433L869 616C865.218 617.022 861.933 617.357 858 617C855.395 614.591 855.017 613.217 854.742 609.652C854.869 606.099 854.991 602.555 855 599C850.992 586.976 841.107 579.85 830.312 574.312C826.08 572.231 822.121 570.264 818.48 567.23L816 565ZM568.101 826C567.493 826 567 826.493 567 827.1V843C567 843.552 567.448 843.999 568 844C568.552 843.999 569 843.552 569 843C569 842.448 569.448 842 570 842H570.382C571.231 842 571.88 841.241 571.741 840.403C570.989 835.875 570.093 831.379 569.179 826.88C569.074 826.368 568.623 826 568.101 826ZM759.547 159.886C723.939 132.434 682.425 140.366 645.282 160.529C644.57 160.923 643.879 161.305 643.187 161.687C641.037 162.863 639.082 164.07 637.247 165.409C634.128 167.684 635.721 171.823 638.562 174.437C639.515 175.473 640.621 176.357 641.819 177.095C647.539 180.619 652.796 184.643 657.5 189.5C657.876 189.89 658.257 190.274 658.642 190.652C664.895 196.782 674.541 196.011 682.286 191.927C683.792 191.133 685.624 190.208 688.101 188.958C688.747 188.632 689.373 188.316 690 188C698.818 183.448 706.066 181.976 716 183C728.265 184.981 739.888 189.473 747.84 199.265C755.7 210.366 758.723 224.488 756.527 237.882C753.678 250.952 748.506 262.867 737.125 270.312C737.031 270.369 736.94 270.424 736.853 270.476C734.375 271.969 732.883 274.815 734.434 277.257C738.615 283.241 742.339 289.272 745.812 295.687C746.132 296.294 746.425 296.884 746.708 297.453C749.36 302.775 756.079 302.344 760.459 298.322C772.417 287.342 778.878 271.292 784.168 256.304C784.773 254.534 785.384 252.766 786 251C788.451 244.832 789.346 239.639 789.312 232.97L789.25 229.812C789.225 224.759 789.22 219.761 788.594 214.742L788 212C783.679 191.942 775.43 173.569 759.547 159.886ZM272 154C237.582 136.948 192.703 135.584 164.723 166L163 168C155.895 175.849 150.825 185.122 147.26 195.066C138.76 221.784 143.721 254.145 155.949 278.965C157.476 281.921 159.217 286.137 161.362 289.971C165.121 296.689 173.324 295.147 177.503 288.682C181.48 282.523 185.587 276.822 190.601 271.441C191.442 270.575 191.66 269.274 191.1 268.205C189.893 265.898 188.551 263.716 187.125 261.5C181.284 252.57 179.47 243.035 179.355 232.511C179.369 230.502 179.375 228.499 179.328 226.491C179.026 214.459 181.903 204.472 190.324 195.593L192 194C200.411 185.807 208.53 185.001 219.871 184.777C221.072 184.763 221.073 184.763 222.25 184.75C229.385 184.658 235.498 185.41 242.09 188.402C247.349 191.237 252.425 193.549 258.017 195.378C259.218 195.771 260.531 195.383 261.355 194.425L263.187 192.312C265.997 189.062 268.94 186.016 272 183C274.012 181.025 276.023 179.048 278.029 177.068L280.187 174.937L282.381 172.794L284.48 170.714C288.302 166.956 286.27 161.089 281.477 158.689C279.134 157.515 276.786 156.349 274.432 155.193C273.606 154.787 272.802 154.393 272 154Z" fill="#442C12"/>
<path id="&#232;&#128;&#179;&#229;&#143;&#179;&#229;&#134;&#133;&#229;&#129;&#180;" d="M736.938 188.687C747.864 195.165 753.732 205.388 756.812 217.437C760.148 233.867 756.185 249.069 747 263C744.532 266.101 741.856 268.936 738.579 270.935C735.793 272.634 732.004 272.74 729.743 270.386C729.06 269.675 728.5 268.848 727.943 267.842C727.294 266.672 726.338 265.691 725.125 265.125C722.939 263.968 721.73 262.318 720.533 260.428C719.514 258.819 718.269 257.367 716.785 256.173C715.868 255.434 714.939 254.71 714 254C712.466 252.466 710.932 250.932 709.398 249.398C709.133 249.133 708.843 248.895 708.532 248.688C707.922 248.281 707.311 247.874 706.691 247.46C706.259 247.173 706 246.695 706 246.177C706 245.484 706.459 244.869 707.125 244.679C707.975 244.436 708.827 244.192 709.684 243.947C711.686 243.375 713.188 241.642 713.259 239.561C713.341 237.106 713.097 234.937 712.055 232.573C711.545 231.414 710.757 230.398 709.811 229.556C706.736 226.815 703.098 224.803 699.578 222.652C696.6 220.744 694.364 218.626 692 216C690.818 214.807 689.63 213.62 688.438 212.437C686.514 210.522 684.618 208.596 682.75 206.625C681.176 204.962 681.011 204.788 678.848 204.219C678.35 204.088 678 203.647 678 203.133C678 202.511 677.496 202 676.874 202C676.818 202 676.762 202 676.706 202C676.266 202 675.855 201.776 675.619 201.405C675.148 200.664 674.932 200.287 674.653 199.637C674.203 198.589 674.146 197.389 674.614 196.35C675.366 194.684 676.321 193.797 678.291 192.552C679.225 192.118 680.159 191.685 681.121 191.238C682.139 190.759 683.157 190.281 684.205 189.787C685.272 189.3 686.338 188.814 687.438 188.312C689.032 187.565 689.032 187.565 690.658 186.803C706.342 179.492 721.36 180.964 736.938 188.687Z" fill="#7E5631"/>
<path id="&#232;&#128;&#179;&#229;&#183;&#166;&#229;&#134;&#133;&#229;&#129;&#180;" d="M241 187C242.013 187.443 242.013 187.443 243.047 187.895C252.988 192.289 256.176 193.698 257.612 194.976C258.799 196.033 258.754 197.85 258.262 199.362C258.246 199.411 258.23 199.46 258.214 199.509C257.51 201.662 255.578 203.158 253.326 203.408C252.058 203.549 250.783 203.691 249.494 203.834C248.643 203.929 248 204.636 248 205.492C248 206.345 247.36 207.074 246.513 207.171C246.455 207.178 246.398 207.185 246.34 207.191C238.511 208.401 231.768 211.539 224.78 215.101C223.152 215.923 221.503 216.702 219.852 217.477C217.029 218.859 215.846 219.438 214.79 220.533C212.72 222.681 211.811 225.735 211.875 228.718C211.89 229.461 211.933 230.215 212 231C212.017 231.267 212.034 231.535 212.051 231.803C212.142 233.222 212.074 234.8 212.941 235.928C213.261 236.344 213.746 236.578 214.75 237.062C215.18 237.242 215.611 237.421 216.046 237.602C216.679 237.866 217.276 238.212 217.817 238.634C220.367 240.624 221.448 244.209 219.177 246.512C217.486 248.227 215.364 249.526 213.188 251C211.951 251.853 210.715 252.707 209.48 253.562C208.888 253.97 208.295 254.377 207.685 254.797C206.134 255.904 204.65 257.105 203.176 258.312C201.941 259.27 201.407 259.684 200.811 259.863C199.755 260.18 198.728 260.667 198.312 261.688C195.665 266.353 188.881 265.916 186.045 261.363C180.428 252.345 178.584 242.208 178.52 230.886C178.5 228.833 178.438 226.785 178.375 224.732C178.163 211.559 182.728 202.506 191.789 193.129C192.519 192.426 193.248 191.724 194 191C194.565 190.452 195.129 189.904 195.711 189.34C206.108 180.642 229.133 181.8 241 187Z" fill="#603F20"/>
</g>
<g id="&#229;&#176;&#187;&#229;&#176;&#190;">
<path id="Vector" d="M895.438 527.25C896.099 527.454 896.761 527.659 897.443 527.87C907.324 531.18 915.107 538.214 919.75 547.5C922.517 555.724 922.035 563.709 918.312 571.5C914.316 578.584 909.043 582.859 902.738 587.828C899.981 590.015 897.271 592.253 894.562 594.5C890.841 597.562 887.047 600.449 883.125 603.25C878.709 606.414 875.104 609.633 871.5 613.687C869.529 615.412 867.452 616.138 865 617C865 617.33 865 617.66 865 618C861.75 618.312 861.75 618.312 858 618C855.081 615.264 854.058 613.755 853.75 609.73C853.833 608.561 853.915 607.392 854 606.187C854.157 599.914 853.725 596.055 850 591C849.23 589.911 849.23 589.911 848.445 588.801C842.897 581.788 835.764 578.055 828 574C826.247 573.047 824.496 572.09 822.75 571.125C822.064 570.756 821.378 570.388 820.672 570.008C819 569 819 569 817 567C817.167 562.242 819.451 560.034 822.707 556.762C823.188 556.277 823.668 555.793 824.163 555.294C825.185 554.269 826.212 553.25 827.243 552.236C828.783 550.716 830.301 549.177 831.818 547.635C840.343 539.082 849.51 531.173 861.438 528.062C862.105 527.868 862.772 527.674 863.459 527.475C874.467 524.328 884.443 523.83 895.438 527.25Z" fill="#5E3E1F"/>
<path id="Vector_2" d="M825.188 625.188C826.116 625.786 827.044 626.384 828 627C828.897 627.528 828.897 627.528 829.813 628.066C833.484 630.384 836.086 632.599 837.559 636.859C839.201 644.823 838.588 651.704 834.559 658.805C830.99 663.83 826.862 667.069 821 669C813.885 669.932 808.409 669.535 802.523 665.289C799.535 662.76 798.233 660.974 797.763 656.995C797.601 654.539 797.451 652.082 797.313 649.625C797.253 648.774 797.193 647.923 797.131 647.047C796.743 640.22 797.673 636.132 802.25 630.875C808.664 623.895 816.169 621.828 825.188 625.188Z" fill="#5A3B1E"/>
<path id="Vector_3" d="M853.313 710.312C855.644 711.776 857.829 713.311 860 715C860.33 715 860.66 715 861 715C861.798 721.699 862.111 728.256 862 735C862 735.99 862 736.98 862 738C858.529 745.209 853.647 750.151 846 753C839.538 753.987 834.331 752.783 829 749C824.922 745.223 822.472 740.957 821.594 735.457C821.327 727.92 823.054 722.752 828 717C830.831 714.638 833.757 712.745 837 711C837.66 710.625 838.32 710.25 839 709.863C843.688 707.84 848.685 708.479 853.313 710.312Z" fill="#5A3B1E"/>
<path id="Vector_4" d="M831 788C834.125 789.375 834.125 789.375 836 791C836 791.66 836 792.32 836 793C836.598 793.186 837.196 793.371 837.812 793.562C841.953 796.283 842.758 801.065 843.937 805.625C844.017 809.938 842.775 810.801 840 814C838.687 815.624 837.374 817.249 836.062 818.875C835.365 819.736 834.668 820.597 833.949 821.484C832.278 823.642 830.824 825.818 829.375 828.125C827 831 827 831 824.062 831.687C816.793 830.056 812.426 824.634 808 819C805.64 814.28 806.422 808.104 807 803C811.408 792.262 819.675 786.969 831 788Z" fill="#593A1D"/>
</g>
<g id="&#228;&#189;&#147;&#227;&#129;&#174;&#230;&#168;&#161;&#230;&#167;&#152;">
<path id="Vector_5" d="M661.938 759.938C668.058 763.204 673.766 768.298 676 775C676.684 784.923 673.556 793.467 667 801C661.88 805.226 656.368 808.619 649.688 809.375C643.801 808.776 639.122 806.615 635.188 802.125C630.363 795.233 629.172 790.346 630 782C631.469 774.007 635.769 766.029 642.434 761.258C649.386 757.512 654.597 756.731 661.938 759.938Z" fill="#5B3C1E"/>
<path id="Vector_6" d="M613.313 649C619.79 653.791 625.478 659.898 627 668C627.806 675.941 627.672 683.27 623 690C619.581 693.601 616.256 696.81 611.172 697.238C599.829 697.484 599.829 697.484 595 693C594.406 692.468 593.812 691.935 593.199 691.387C587.072 685.665 584.44 680.146 583.727 671.801C583.495 663.854 583.897 657.389 589 651C595.348 645.37 606.063 644.847 613.313 649Z" fill="#5A3B1E"/>
<path id="Vector_7" d="M679 673C686.757 675.965 693.128 681.728 697.094 689.008C699.647 695.036 699.858 700.802 698 707.062C695.824 712.382 691.088 716.456 686 719C678.207 719.883 672.229 719.702 665.934 714.77C659.511 708.892 655.587 703.381 654.625 694.562C655.541 685.858 658.621 680.026 665 674C669.267 671.867 674.379 672.426 679 673Z" fill="#5A3B1E"/>
<path id="Vector_8" d="M723.688 744.812C724.9 744.791 724.9 744.791 726.137 744.77C729.917 745.074 733.339 746.013 737 747C738.698 753.659 740.364 760.325 742 767C742.175 767.713 742.351 768.426 742.531 769.16C746.371 785 746.371 785 745 791C742.306 794.143 740.272 794.832 736.211 795.367C727.922 795.724 722.497 794.09 716.313 788.625C715.549 787.759 714.786 786.893 714 786C713.533 785.478 713.067 784.956 712.586 784.418C709 780.301 709 780.301 709 778C708.34 778 707.68 778 707 778C703.487 772.45 704.466 765.297 705 759C706.593 753.315 711.261 749.276 716 746C718.849 745.05 720.725 744.836 723.688 744.812Z" fill="#5D3D1E"/>
<path id="Vector_9" d="M699 816C706.786 818.998 711.053 823.848 715 831C715.928 832.392 715.928 832.392 716.875 833.812C718.827 839.343 719.137 845.571 717.273 851.191C714.694 856.046 711.185 859.272 706 861C697.507 861.703 691.249 860.614 684.312 855.437C679.4 850.934 677.436 845.492 676.621 838.969C676.368 832.499 677.058 827.264 681 822C686.791 816.632 691.186 814.773 699 816Z" fill="#593A1D"/>
<path id="Vector_10" d="M371 699C371.99 699.66 372.98 700.32 374 701C374.54 703.857 374.93 706.618 375.25 709.5C376.519 719.011 379.399 727.196 383.16 735.977C384.374 738.9 385.389 741.889 386.437 744.875C390.492 755.416 397.617 765.894 406.5 773C408.347 775.463 408.104 776.269 407.75 779.25C407.502 780.488 407.255 781.725 407 783C403.908 784.139 401.791 784.332 398.727 783.047C386.532 776.046 378.93 766.925 372 755C371.568 754.291 371.136 753.582 370.691 752.852C363.729 740.444 360.549 721.888 363.625 708C365.444 704.032 367.75 701.897 371 699Z" fill="#472D12"/>
<path id="Vector_11" d="M473 659C476 660 476 660 478 663C478.275 664.986 478.275 664.986 478.301 667.246C478.311 668.077 478.32 668.908 478.33 669.764C478.213 687.398 473.973 703.444 462 717C457.569 720.644 454.72 721.55 449 721C448.34 720.67 447.68 720.34 447 720C449.038 712.173 452.121 705.145 455.625 697.875C460.373 687.856 464.539 677.756 468.233 667.302C468.571 666.356 468.909 665.409 469.258 664.434C469.548 663.599 469.838 662.764 470.137 661.904C471 660 471 660 473 659Z" fill="#BE8138"/>
<path id="Vector_12" d="M522 653C526.77 652.833 526.77 652.833 528.844 654.336C537.198 664.621 539.957 678.75 539.496 691.766C538.805 696.272 537.333 699.827 534 703C532.515 703.495 532.515 703.495 531 704C530.67 704.99 530.34 705.98 530 707C528.68 707 527.36 707 526 707C525.135 705.286 524.31 703.553 523.5 701.812C523.036 700.85 522.572 699.887 522.094 698.895C520.172 693.477 520.814 687.656 521 682C521.034 680.758 521.068 679.515 521.104 678.235C521.219 674.385 521.356 670.537 521.5 666.688C521.548 665.35 521.597 664.012 521.645 662.674C521.761 659.449 521.879 656.225 522 653Z" fill="#482D12"/>
<path id="Vector_13" d="M495 712C501.387 714.129 504.77 718.194 508 724C508.57 727.079 508.571 730.064 508.5 733.188C508.489 734.027 508.479 734.866 508.468 735.73C508.271 742.198 507.489 748.4 504 754C501.47 756.276 500.358 756.949 496.937 757.438C494 757 494 757 492.25 755.5C486.25 743.5 488.107 727.497 492 715C493.605 713.078 493.605 713.078 495 712Z" fill="#4B2F13"/>
<path id="Vector_14" d="M517 799C520.281 801.639 523.566 804.685 524.371 808.98C524.558 815.192 523.162 819.332 519 824C514.825 827.678 510.581 828.647 505.082 828.395C501.9 827.792 500.187 826.32 498 824C494.872 819.308 495.44 814.49 496 809C497.84 804.52 500.04 802.733 504.25 800.625C508.801 798.851 512.147 798.272 517 799Z" fill="#5C3C1E"/>
<path id="Vector_15" d="M340 768C346.314 768.619 349.827 769.827 354.312 774.312C357.452 779.378 356.716 786.323 356 792C354.396 795.966 353.588 797.608 350 800C345.001 800.463 341.991 800.104 338 797C333.359 791.862 333.559 785.952 333.566 779.285C334.217 774.357 336.526 771.422 340 768Z" fill="#5D3D1E"/>
<path id="Vector_16" d="M363 654C364.288 659.098 363.616 661.953 361.578 666.754C361.317 667.377 361.057 668.001 360.788 668.643C360.237 669.954 359.678 671.263 359.113 672.568C358.253 674.554 357.414 676.548 356.578 678.545C350.454 693.031 350.454 693.031 346 696C342.312 695.625 342.312 695.625 339 695C337.194 682.813 344.467 672.117 350.687 662.188C351.055 661.595 351.423 661.002 351.802 660.392C355.079 655.372 357.022 654 363 654Z" fill="#C78737"/>
</g>
<g id="&#233;&#161;&#148;">
<path id="&#229;&#143;&#163;&#229;&#133;&#131;" d="M489 448C495.836 449.242 501.29 451.308 507.375 454.625C508.622 455.297 508.622 455.297 509.895 455.983C524.099 463.77 535.837 473.456 544.562 487.188C544.98 487.84 545.398 488.493 545.828 489.166C551.123 497.902 551.34 506.183 551.312 516.188C551.329 517.33 551.345 518.473 551.361 519.65C551.373 540.703 542.696 556.661 528.688 571.75C515.932 583.762 499.892 591.038 483 595C481.823 595.299 480.646 595.598 479.434 595.906C460.34 600.068 437.542 600.483 419 594C418.028 593.734 417.056 593.469 416.055 593.195C392.437 586.438 372.084 571.058 359.859 549.918C355.101 540.452 353.331 531.544 353.438 521C353.414 519.915 353.39 518.829 353.365 517.711C353.397 499.764 364.727 484.633 376.719 472.176C386.851 462.223 398.925 455.41 412 450C411.52 451.091 411.52 451.091 411.031 452.203C409.159 457.28 408.842 462.332 411.027 467.367C418.77 479.763 430.438 485.649 444 490C445.907 512.788 445.907 512.788 442.871 517.902C439.771 520.809 436.051 522.008 432 523C430.515 523.495 430.515 523.495 429 524C423.727 524.836 419.827 524.324 415.25 521.5C409.84 517.509 406.406 512.592 405 506C400.278 504.853 400.278 504.853 395.805 506.164C393.471 508.538 393.403 509.765 393.375 513.062C393.666 520.39 396.697 525.654 401.793 530.816C408.723 536.518 417.41 539.748 426.398 539.32C434.411 538.334 441.297 536.35 448.062 531.891C450 531 450 531 451.984 531.207C454.232 532.091 456.185 533.186 458.25 534.438C470.118 541.147 482.224 539.509 495 536C502.239 533.009 507.379 527.15 511.5 520.625C512.39 515.951 512.151 510.303 510 506C505.401 505.365 505.401 505.365 501.316 507.248C499.623 509.022 498.05 510.849 496.5 512.75C491.988 518.152 487.851 522.985 480.629 524.496C473.264 524.287 467.082 522.239 461 518C459.669 515.338 459.887 513.313 459.902 510.336C459.907 508.654 459.907 508.654 459.912 506.938C459.925 505.174 459.925 505.174 459.938 503.375C459.942 502.192 459.947 501.008 459.951 499.789C459.963 496.859 459.979 493.93 460 491C461.051 490.504 462.101 490.007 463.184 489.496C475.441 483.611 484.911 478.068 492 466C493.206 462.381 493.323 459.808 493 456C491.096 452.727 491.096 452.727 489 450C489 449.34 489 448.68 489 448Z" fill="#FED67F"/>
<path id="Vector_17" d="M398.604 423.41C398.992 424.204 399.381 424.999 399.782 425.818C399.119 428.213 398.397 430.489 397.588 432.842C395.053 440.666 393.989 447.899 393.27 455.845C393.006 458.479 392.595 461.11 392.206 463.748C391.054 473.158 391.846 483.377 394.92 491.437C395.214 493.887 394.78 494.452 393.514 496.694C392.926 497.597 392.337 498.5 391.731 499.43C389.397 499.462 388.004 499.022 386.535 497.158C381.352 488.256 379.786 478.97 379.622 467.67C379.6 466.993 379.578 466.316 379.555 465.618C379.54 453.929 384.047 438.468 390.835 428.42C393.363 425.811 395.554 424.778 398.604 423.41Z" fill="#472D12"/>
<path id="Vector_18" d="M504.633 423.128C504.308 423.883 503.983 424.637 503.647 425.415C504.328 427.75 505.06 429.973 505.872 432.272C508.433 439.912 509.641 446.932 510.562 454.63C510.89 457.184 511.351 459.738 511.792 462.299C513.155 471.425 512.782 481.268 510.271 488.952C510.088 491.308 510.5 491.868 511.722 494.076C512.286 494.967 512.849 495.859 513.43 496.777C515.545 496.885 516.793 496.506 518.06 494.754C522.454 486.327 523.558 477.41 523.324 466.502C523.322 465.849 523.319 465.195 523.316 464.522C522.934 453.233 518.329 438.152 511.84 428.223C509.461 425.62 507.442 424.55 504.633 423.128Z" fill="#472D12"/>
<path id="&#233;&#188;&#187;&#229;&#143;&#163;" d="M485.891 445.906C490.503 449.794 493.668 453.122 494.375 459.25C493.513 467.871 488.195 474.231 482 480C475.289 485.096 468.963 487.815 461 491C461 499.91 461 508.82 461 518C462.65 518.66 464.3 519.32 466 520C466.634 520.281 467.268 520.562 467.922 520.852C472.944 522.976 477.575 524.089 483 523C489.786 520.123 494.469 514.639 498.931 508.964C501.568 505.809 502.66 505.031 506.836 504.648C508.402 504.822 508.402 504.822 510 505C512.467 510.14 514.276 514.156 512.379 519.871C509.231 527.049 503.807 532.917 496.75 536.375C484.917 540.986 471.865 541.62 460 537C457.922 535.652 457.922 535.652 456.125 534.25C453.314 531.71 453.314 531.71 450.602 532.207C447.92 533.025 445.704 534.086 443.25 535.437C434.782 539.772 425.584 541.618 416.203 539.312C405.716 535.836 399.501 530.518 394 521C392.021 517.041 392.448 512.305 393 508C395.63 504.494 397.146 504.124 401.438 503.5C405.808 505.34 405.987 506.478 407.875 510.687C410.684 516.938 413.57 520.428 420 523C426.984 524.822 432.337 521.723 438.398 518.41C441 517 441 517 444 516C444 507.42 444 498.84 444 490C441.36 489.34 438.72 488.68 436 488C425.415 483.768 416.931 478.112 410.438 468.562C408.531 463.837 407.869 460.011 409 455C412.825 447.778 419.522 444.49 427 442C444.271 438.3 470.347 435.656 485.891 445.906Z" fill="#442B12"/>
<path id="&#231;&#155;&#174;&#229;&#143;&#179;" d="M592.668 386.801C601.428 393.465 605.366 399.375 608 410C608.187 410.614 608.374 411.227 608.566 411.859C611.722 427.437 607.362 442.366 598.813 455.312C591.423 462.374 583.769 466.373 573.625 467.312C563.189 466.413 555.758 462.299 548.75 454.625C539.866 443.592 539.136 430.666 540 417C541.618 406.381 546.701 394.122 555 387C567.103 378.91 580.441 378.548 592.668 386.801Z" fill="#452C12"/>
<path id="&#231;&#155;&#174;&#229;&#183;&#166;" d="M352.207 385.039C361.396 391.491 368.384 401.466 370.719 412.555C372.417 427.317 370.742 441.574 362 454C355.647 461.242 348.717 465.452 339.09 466.375C331.734 466.703 325.076 466.593 319 462C318.083 461.346 318.083 461.346 317.148 460.68C308.59 454.015 304.642 444.586 303 434C301.616 419.149 303.304 405.504 312 393C322.962 380.696 337.335 376.67 352.207 385.039Z" fill="#452D12"/>
<path id="&#227;&#129;&#187;&#227;&#129;&#163;&#227;&#129;&#186;&#229;&#143;&#179;" d="M654.563 462.125C656.071 463.037 657.553 463.993 659 465C659.643 465.411 660.287 465.822 660.949 466.246C666.649 470.413 669.781 476.407 672 483C673.443 492.352 671.737 500.37 666.527 508.219C661.015 515.204 653.429 518.615 645 521C636.315 521.945 628.487 522.175 621.117 516.902C614.258 510.739 609.565 503.96 608.688 494.703C608.313 483.808 610.669 476.762 618.07 468.789C627.752 459.813 642.305 456.26 654.563 462.125Z" fill="#F48758"/>
<path id="&#227;&#129;&#187;&#227;&#129;&#163;&#227;&#129;&#186;&#229;&#183;&#166;" d="M285.891 463.676C292.929 468.094 298.373 475.119 301 483C301.728 492.74 302.3 501.924 296 510C289.718 517.072 283.846 520.364 274.52 521.379C264.169 521.875 256.525 519.763 248.621 512.949C241.965 506.048 238.854 498.947 238.5 489.375C238.715 483.632 239.629 479.651 243 475C243.548 474.238 244.096 473.476 244.66 472.691C254.585 460.281 271.444 456.768 285.891 463.676Z" fill="#F58654"/>
<path id="&#227;&#129;&#190;&#227;&#130;&#134;&#229;&#183;&#166;" d="M359 325C364.433 326.928 369.08 329.922 372 335C372.438 337.625 372.438 337.625 372 340C370.121 342.505 369.039 342.987 366 344C360.921 344.275 356.744 343.616 351.875 342.187C350.697 341.851 349.519 341.515 348.305 341.168C345.174 340.061 342.658 338.988 340 337C339.375 333.562 339.375 333.562 340 330C345.695 324.305 351.249 324.154 359 325Z" fill="#4E3216"/>
<path id="&#227;&#129;&#190;&#227;&#130;&#134;&#229;&#143;&#179;" d="M557 325.812C558.031 325.798 559.062 325.784 560.125 325.77C563.016 326.001 564.645 326.327 567 328C568 331.375 568 331.375 568 335C565.533 339.23 561.304 340.176 556.816 341.406C552.245 342.37 547.659 342.743 543 343C541.112 340.325 540.046 338.22 539.375 335C540.197 331.055 541.821 330.131 545.078 327.98C549.006 325.977 552.626 325.84 557 325.812Z" fill="#543618"/>
</g>
<g id="&#233;&#161;&#148;&#227;&#129;&#174;&#230;&#168;&#161;&#230;&#167;&#152;">
<path id="Vector_19" d="M406.996 257.121C413.352 258.981 418.257 261.909 422.5 267C426.823 275.646 426.884 281.911 424 291C421.252 298.223 417.774 303.419 410.883 307.145C407.223 308.657 403.92 309.486 400 309C397.43 307.242 397.43 307.242 394.875 304.875C393.603 303.726 393.603 303.726 392.305 302.555C385.075 294.541 385.509 285.108 385.881 274.948C386.269 268.589 388.605 265.021 392.938 260.437C397.62 256.583 401.091 256.163 406.996 257.121Z" fill="#5A3B1E"/>
<path id="Vector_20" d="M471 177C476.824 180.418 481.075 185.518 483 192C484.935 201.014 480.521 208.475 476 216C472.056 221.301 468.244 224.864 461.562 226C457.736 226.244 454.902 225.697 451.633 223.492C444.986 217.418 442.119 209.852 441.688 201C441.978 193.177 445.078 188.044 450.762 182.766C456.501 178.238 463.636 175.081 471 177Z" fill="#5A3B1F"/>
<path id="Vector_21" d="M550 204C557.017 206.349 561.451 212.159 564.875 218.437C566.9 224.851 566.702 229.042 563.938 235.062C559.977 242.314 555.09 247.587 547 250C541.689 250.734 537.421 250.144 533 247C529.214 243.554 527.947 239.84 527.551 234.824C527.215 226.572 527.207 218.072 532 211C537.471 205.09 541.962 203.075 550 204Z" fill="#5A3B1E"/>
<path id="Vector_22" d="M382.5 192.563C386.837 196.791 389.75 199.749 390.438 205.938C389.95 212.744 388.549 218.732 384 224C379.19 227.585 374.4 228.657 368.457 228.383C362.913 227.519 358.741 225.152 355.063 220.938C351.446 215.786 351.517 211.094 352 205C353.742 198.468 357.388 195.372 363 192C369.208 189.931 376.529 189.897 382.5 192.563Z" fill="#5A3B1E"/>
<path id="Vector_23" d="M486 269C491.039 271.878 493.815 275.659 496 281C497.291 290.388 496.572 298.39 491.773 306.691C489.053 310.233 487.38 311.078 483 312C478.75 312.522 476.639 312.326 472.812 310.375C468.416 306.662 465.296 302.477 464.797 296.617C464.613 285.863 466.787 279.658 474.16 271.75C477.632 268.448 481.394 268.127 486 269Z" fill="#5A3B1F"/>
<path id="Vector_24" d="M335.23 257.621C338.516 260.181 340.024 262.981 341 267C341.703 275.25 339.041 281.578 334 288C329.921 292.243 326.74 294.57 320.813 295.5C315.351 294.784 312.552 292.076 309 288C305.477 281.541 306.226 272.848 308.188 265.938C309.343 262.824 309.583 262.219 312.625 260.625C313.409 260.419 314.193 260.213 315 260C315.33 259.01 315.66 258.02 316 257C322.25 253.402 329.168 254.189 335.23 257.621Z" fill="#5D3D1E"/>
<path id="Vector_25" d="M618 255C623.131 260.067 626.279 264.373 626.375 271.75C626.253 277.319 625.603 281.63 622 286C618.428 289.169 615.203 290.785 610.5 291.625C604.687 290.587 600.655 287.742 596.625 283.5C593.702 279.004 592.723 275.361 592.75 270C592.745 268.989 592.74 267.979 592.734 266.938C593.172 262.099 594.333 259.653 597.812 256.25C603.624 252.148 611.687 251.277 618 255Z" fill="#5D3D1F"/>
<path id="Vector_26" d="M250 431C251 432 251 432 251.387 434.18C250.835 438.203 248.543 440.324 245.812 443.125C245.28 443.687 244.748 444.249 244.199 444.828C239.351 449.846 234.122 454.356 228.715 458.758C226.08 460.836 226.08 460.836 224.297 462.824C223.655 463.406 223.655 463.406 223 464C220.312 463.688 220.312 463.688 218 463C217.529 456.383 217.534 452.267 222 447C222.532 446.34 223.065 445.68 223.613 445C227.038 440.87 230.297 437.687 235 435C235.944 434.443 235.944 434.443 236.906 433.875C241.409 431.381 244.736 430.463 250 431Z" fill="#CB8936"/>
<path id="Vector_27" d="M669 430C680.92 429.255 688.29 435.807 697 443C699 445 699 445 699.195 446.945C699.13 448.964 699.065 450.982 699 453C690.577 453.721 683.875 448.003 677.484 443.051C674.258 440.296 671.276 437.614 669 434C669 432.68 669 431.36 669 430Z" fill="#B87C36"/>
<path id="Vector_28" d="M658 343C663.056 343.197 665.511 344.828 669.125 348.25C669.953 349.018 670.78 349.787 671.633 350.578C677.926 357.016 677.926 357.016 678.25 361.312C678.167 362.199 678.085 363.086 678 364C673.253 364.99 669.932 365.348 665.312 363.625C661.032 360.735 658.188 356.625 656 352C655.5 348.062 655.5 348.062 656 345C656.66 344.34 657.32 343.68 658 343Z" fill="#B77B36"/>
<path id="Vector_29" d="M257 337C258.768 339.6 258.999 341.063 258.937 344.25C257.083 351.67 253.177 356.641 246.934 361.008C245 362 245 362 242.062 361.938C240 361 240 361 239 360C238.487 356.58 238.356 354.062 240.19 351.036C241.844 348.983 243.573 347.049 245.375 345.125C245.978 344.45 246.582 343.774 247.203 343.078C252.695 337 252.695 337 257 337Z" fill="#B87A34"/>
</g>
</g>
<defs>
<radialGradient id="paint0_radial_1_130" cx="0" cy="0" r="1" gradientUnits="userSpaceOnUse" gradientTransform="translate(531.601 508.426) rotate(90) scale(436.844 411.795)">
<stop stop-color="#FABF57"/>
<stop offset="1" stop-color="#DAB065"/>
</radialGradient>
</defs>
</svg>
