<svg width="1200" height="1200" viewBox="0 0 1200 1200" fill="none" xmlns="http://www.w3.org/2000/svg">
<path d="M1160.53 1164.14C1159.86 1164.14 1159.26 1163.97 1158.72 1163.63C1158.19 1163.29 1157.77 1162.78 1157.45 1162.11C1157.14 1161.44 1156.99 1160.62 1156.99 1159.65C1156.99 1158.65 1157.15 1157.82 1157.47 1157.15C1157.79 1156.49 1158.22 1155.99 1158.75 1155.66C1159.29 1155.33 1159.88 1155.16 1160.52 1155.16C1161.01 1155.16 1161.42 1155.24 1161.74 1155.41C1162.07 1155.57 1162.34 1155.78 1162.54 1156.02C1162.74 1156.27 1162.9 1156.5 1163 1156.74H1163.08V1152.36H1165.49V1164H1163.11V1162.6H1163C1162.89 1162.84 1162.73 1163.09 1162.52 1163.32C1162.32 1163.56 1162.05 1163.75 1161.72 1163.91C1161.39 1164.06 1161 1164.14 1160.53 1164.14ZM1161.29 1162.22C1161.68 1162.22 1162.01 1162.11 1162.28 1161.9C1162.55 1161.68 1162.76 1161.38 1162.91 1160.99C1163.05 1160.61 1163.13 1160.16 1163.13 1159.64C1163.13 1159.12 1163.06 1158.67 1162.91 1158.28C1162.77 1157.9 1162.56 1157.61 1162.29 1157.4C1162.01 1157.19 1161.68 1157.09 1161.29 1157.09C1160.89 1157.09 1160.56 1157.19 1160.29 1157.41C1160.01 1157.63 1159.81 1157.92 1159.67 1158.31C1159.53 1158.69 1159.46 1159.13 1159.46 1159.64C1159.46 1160.14 1159.53 1160.59 1159.67 1160.98C1159.81 1161.37 1160.02 1161.67 1160.29 1161.89C1160.56 1162.11 1160.89 1162.22 1161.29 1162.22Z" fill="black"/>
<path d="M1151.72 1164.17C1150.83 1164.17 1150.05 1163.99 1149.41 1163.62C1148.76 1163.26 1148.27 1162.74 1147.92 1162.07C1147.57 1161.39 1147.39 1160.6 1147.39 1159.68C1147.39 1158.78 1147.57 1157.99 1147.92 1157.31C1148.27 1156.63 1148.76 1156.11 1149.39 1155.73C1150.03 1155.35 1150.77 1155.16 1151.63 1155.16C1152.2 1155.16 1152.74 1155.25 1153.24 1155.44C1153.74 1155.62 1154.17 1155.89 1154.54 1156.26C1154.92 1156.63 1155.21 1157.09 1155.42 1157.65C1155.63 1158.2 1155.73 1158.85 1155.73 1159.59V1160.26H1148.36V1158.76H1153.45C1153.45 1158.41 1153.38 1158.1 1153.22 1157.83C1153.07 1157.56 1152.86 1157.35 1152.59 1157.2C1152.33 1157.04 1152.02 1156.97 1151.67 1156.97C1151.3 1156.97 1150.97 1157.05 1150.69 1157.22C1150.41 1157.39 1150.19 1157.61 1150.03 1157.9C1149.87 1158.18 1149.79 1158.49 1149.79 1158.84V1160.26C1149.79 1160.69 1149.87 1161.07 1150.03 1161.38C1150.19 1161.7 1150.42 1161.94 1150.71 1162.11C1151.01 1162.28 1151.36 1162.36 1151.76 1162.36C1152.03 1162.36 1152.28 1162.33 1152.5 1162.25C1152.73 1162.17 1152.92 1162.06 1153.08 1161.91C1153.24 1161.76 1153.36 1161.57 1153.44 1161.35L1155.68 1161.5C1155.57 1162.04 1155.33 1162.51 1154.98 1162.91C1154.63 1163.31 1154.18 1163.62 1153.63 1163.84C1153.08 1164.06 1152.44 1164.17 1151.72 1164.17Z" fill="black"/>
<path d="M1146.79 1155.27L1143.74 1164H1141.01L1137.96 1155.27H1140.52L1142.33 1161.52H1142.42L1144.23 1155.27H1146.79Z" fill="black"/>
<path d="M1131.84 1164V1155.27H1134.19V1156.8H1134.28C1134.44 1156.25 1134.7 1155.84 1135.08 1155.57C1135.45 1155.29 1135.89 1155.15 1136.38 1155.15C1136.5 1155.15 1136.63 1155.16 1136.77 1155.17C1136.91 1155.19 1137.03 1155.21 1137.14 1155.23V1157.38C1137.02 1157.35 1136.87 1157.32 1136.66 1157.29C1136.46 1157.26 1136.28 1157.25 1136.11 1157.25C1135.76 1157.25 1135.44 1157.33 1135.16 1157.48C1134.88 1157.63 1134.66 1157.85 1134.5 1158.12C1134.34 1158.39 1134.26 1158.71 1134.26 1159.06V1164H1131.84Z" fill="black"/>
<path d="M1126.26 1164.17C1125.36 1164.17 1124.59 1163.99 1123.94 1163.62C1123.29 1163.26 1122.8 1162.74 1122.45 1162.07C1122.1 1161.39 1121.93 1160.6 1121.93 1159.68C1121.93 1158.78 1122.1 1157.99 1122.45 1157.31C1122.8 1156.63 1123.29 1156.11 1123.92 1155.73C1124.56 1155.35 1125.3 1155.16 1126.16 1155.16C1126.73 1155.16 1127.27 1155.25 1127.77 1155.44C1128.27 1155.62 1128.7 1155.89 1129.07 1156.26C1129.45 1156.63 1129.74 1157.09 1129.95 1157.65C1130.16 1158.2 1130.26 1158.85 1130.26 1159.59V1160.26H1122.89V1158.76H1127.98C1127.98 1158.41 1127.91 1158.1 1127.76 1157.83C1127.6 1157.56 1127.39 1157.35 1127.13 1157.2C1126.86 1157.04 1126.55 1156.97 1126.2 1156.97C1125.83 1156.97 1125.51 1157.05 1125.22 1157.22C1124.94 1157.39 1124.72 1157.61 1124.56 1157.9C1124.4 1158.18 1124.32 1158.49 1124.32 1158.84V1160.26C1124.32 1160.69 1124.4 1161.07 1124.56 1161.38C1124.72 1161.7 1124.95 1161.94 1125.24 1162.11C1125.54 1162.28 1125.89 1162.36 1126.3 1162.36C1126.56 1162.36 1126.81 1162.33 1127.03 1162.25C1127.26 1162.17 1127.45 1162.06 1127.61 1161.91C1127.77 1161.76 1127.89 1161.57 1127.97 1161.35L1130.21 1161.5C1130.1 1162.04 1129.86 1162.51 1129.51 1162.91C1129.16 1163.31 1128.71 1163.62 1128.16 1163.84C1127.61 1164.06 1126.98 1164.17 1126.26 1164.17Z" fill="black"/>
<path d="M1120.56 1157.76L1118.34 1157.9C1118.3 1157.71 1118.22 1157.54 1118.1 1157.39C1117.97 1157.23 1117.81 1157.11 1117.6 1157.02C1117.4 1156.92 1117.16 1156.87 1116.88 1156.87C1116.5 1156.87 1116.19 1156.95 1115.93 1157.11C1115.67 1157.27 1115.54 1157.48 1115.54 1157.74C1115.54 1157.95 1115.63 1158.12 1115.79 1158.27C1115.96 1158.41 1116.25 1158.53 1116.65 1158.61L1118.23 1158.93C1119.08 1159.11 1119.71 1159.39 1120.13 1159.77C1120.55 1160.16 1120.75 1160.67 1120.75 1161.3C1120.75 1161.87 1120.59 1162.37 1120.25 1162.8C1119.92 1163.23 1119.46 1163.57 1118.87 1163.81C1118.29 1164.05 1117.63 1164.17 1116.87 1164.17C1115.71 1164.17 1114.79 1163.93 1114.11 1163.45C1113.42 1162.96 1113.03 1162.3 1112.91 1161.47L1115.29 1161.35C1115.36 1161.7 1115.53 1161.97 1115.81 1162.15C1116.09 1162.34 1116.44 1162.43 1116.87 1162.43C1117.3 1162.43 1117.64 1162.34 1117.9 1162.18C1118.16 1162.02 1118.29 1161.8 1118.29 1161.54C1118.29 1161.32 1118.2 1161.14 1118.02 1161C1117.83 1160.86 1117.55 1160.75 1117.17 1160.67L1115.66 1160.37C1114.81 1160.2 1114.18 1159.9 1113.76 1159.48C1113.35 1159.06 1113.14 1158.53 1113.14 1157.87C1113.14 1157.31 1113.29 1156.83 1113.6 1156.43C1113.9 1156.02 1114.33 1155.71 1114.88 1155.49C1115.44 1155.27 1116.09 1155.16 1116.84 1155.16C1117.94 1155.16 1118.81 1155.39 1119.44 1155.86C1120.08 1156.32 1120.45 1156.96 1120.56 1157.76Z" fill="black"/>
<path d="M1107.71 1164.17C1106.81 1164.17 1106.04 1163.99 1105.39 1163.62C1104.75 1163.26 1104.25 1162.74 1103.9 1162.07C1103.55 1161.39 1103.38 1160.6 1103.38 1159.68C1103.38 1158.78 1103.55 1157.99 1103.9 1157.31C1104.25 1156.63 1104.74 1156.11 1105.37 1155.73C1106.01 1155.35 1106.76 1155.16 1107.61 1155.16C1108.19 1155.16 1108.72 1155.25 1109.22 1155.44C1109.72 1155.62 1110.16 1155.89 1110.53 1156.26C1110.9 1156.63 1111.19 1157.09 1111.4 1157.65C1111.61 1158.2 1111.71 1158.85 1111.71 1159.59V1160.26H1104.35V1158.76H1109.44C1109.44 1158.41 1109.36 1158.1 1109.21 1157.83C1109.06 1157.56 1108.85 1157.35 1108.58 1157.2C1108.31 1157.04 1108 1156.97 1107.65 1156.97C1107.28 1156.97 1106.96 1157.05 1106.67 1157.22C1106.39 1157.39 1106.17 1157.61 1106.02 1157.9C1105.86 1158.18 1105.78 1158.49 1105.77 1158.84V1160.26C1105.77 1160.69 1105.85 1161.07 1106.01 1161.38C1106.17 1161.7 1106.4 1161.94 1106.7 1162.11C1106.99 1162.28 1107.34 1162.36 1107.75 1162.36C1108.02 1162.36 1108.26 1162.33 1108.49 1162.25C1108.71 1162.17 1108.9 1162.06 1109.06 1161.91C1109.22 1161.76 1109.34 1161.57 1109.42 1161.35L1111.66 1161.5C1111.55 1162.04 1111.32 1162.51 1110.96 1162.91C1110.62 1163.31 1110.17 1163.62 1109.61 1163.84C1109.06 1164.06 1108.43 1164.17 1107.71 1164.17Z" fill="black"/>
<path d="M1093.42 1164V1152.36H1098.01C1098.89 1152.36 1099.64 1152.52 1100.26 1152.84C1100.88 1153.15 1101.36 1153.59 1101.68 1154.16C1102.01 1154.73 1102.18 1155.4 1102.18 1156.16C1102.18 1156.94 1102.01 1157.6 1101.68 1158.16C1101.35 1158.71 1100.86 1159.14 1100.23 1159.43C1099.6 1159.73 1098.84 1159.88 1097.95 1159.88H1094.87V1157.9H1097.55C1098.02 1157.9 1098.41 1157.83 1098.72 1157.7C1099.03 1157.58 1099.26 1157.38 1099.41 1157.13C1099.57 1156.87 1099.64 1156.55 1099.64 1156.16C1099.64 1155.78 1099.57 1155.45 1099.41 1155.19C1099.26 1154.92 1099.03 1154.72 1098.71 1154.59C1098.4 1154.45 1098.01 1154.38 1097.54 1154.38H1095.88V1164H1093.42ZM1099.7 1158.7L1102.59 1164H1099.88L1097.05 1158.7H1099.7Z" fill="black"/>
<path d="M1087.95 1157.76L1085.73 1157.9C1085.69 1157.71 1085.61 1157.54 1085.49 1157.39C1085.36 1157.23 1085.2 1157.11 1084.99 1157.02C1084.79 1156.92 1084.55 1156.87 1084.27 1156.87C1083.89 1156.87 1083.58 1156.95 1083.32 1157.11C1083.06 1157.27 1082.93 1157.48 1082.93 1157.74C1082.93 1157.95 1083.02 1158.12 1083.18 1158.27C1083.35 1158.41 1083.64 1158.53 1084.04 1158.61L1085.62 1158.93C1086.47 1159.11 1087.1 1159.39 1087.52 1159.77C1087.94 1160.16 1088.14 1160.67 1088.14 1161.3C1088.14 1161.87 1087.98 1162.37 1087.64 1162.8C1087.31 1163.23 1086.85 1163.57 1086.26 1163.81C1085.68 1164.05 1085.02 1164.17 1084.26 1164.17C1083.1 1164.17 1082.18 1163.93 1081.5 1163.45C1080.82 1162.96 1080.42 1162.3 1080.3 1161.47L1082.68 1161.35C1082.75 1161.7 1082.93 1161.97 1083.2 1162.15C1083.48 1162.34 1083.83 1162.43 1084.26 1162.43C1084.69 1162.43 1085.03 1162.34 1085.29 1162.18C1085.55 1162.02 1085.68 1161.8 1085.68 1161.54C1085.68 1161.32 1085.59 1161.14 1085.41 1161C1085.22 1160.86 1084.94 1160.75 1084.57 1160.67L1083.05 1160.37C1082.2 1160.2 1081.57 1159.9 1081.15 1159.48C1080.74 1159.06 1080.53 1158.53 1080.53 1157.87C1080.53 1157.31 1080.68 1156.83 1080.99 1156.43C1081.29 1156.02 1081.72 1155.71 1082.28 1155.49C1082.83 1155.27 1083.48 1155.16 1084.23 1155.16C1085.33 1155.16 1086.2 1155.39 1086.83 1155.86C1087.47 1156.32 1087.84 1156.96 1087.95 1157.76Z" fill="black"/>
<path d="M1079.22 1155.27V1157.09H1073.96V1155.27H1079.22ZM1075.15 1153.18H1077.58V1161.32C1077.58 1161.54 1077.61 1161.72 1077.68 1161.84C1077.75 1161.96 1077.84 1162.05 1077.96 1162.1C1078.09 1162.15 1078.23 1162.17 1078.39 1162.17C1078.51 1162.17 1078.62 1162.16 1078.73 1162.14C1078.85 1162.12 1078.94 1162.1 1079 1162.09L1079.38 1163.89C1079.26 1163.93 1079.08 1163.97 1078.87 1164.02C1078.65 1164.08 1078.38 1164.11 1078.06 1164.12C1077.48 1164.14 1076.97 1164.06 1076.53 1163.89C1076.09 1163.71 1075.76 1163.43 1075.51 1163.06C1075.27 1162.68 1075.15 1162.21 1075.15 1161.64V1153.18Z" fill="black"/>
<path d="M1067.01 1158.95V1164H1064.59V1152.36H1066.94V1156.81H1067.05C1067.24 1156.3 1067.56 1155.89 1068 1155.6C1068.44 1155.31 1068.99 1155.16 1069.65 1155.16C1070.26 1155.16 1070.79 1155.29 1071.24 1155.56C1071.69 1155.82 1072.05 1156.2 1072.3 1156.69C1072.55 1157.18 1072.67 1157.76 1072.67 1158.44V1164H1070.25V1158.88C1070.25 1158.34 1070.12 1157.92 1069.84 1157.62C1069.57 1157.32 1069.19 1157.17 1068.69 1157.17C1068.36 1157.17 1068.07 1157.24 1067.82 1157.38C1067.57 1157.52 1067.37 1157.73 1067.23 1157.99C1067.09 1158.26 1067.02 1158.58 1067.01 1158.95Z" fill="black"/>
<path d="M1058.4 1167.45C1057.61 1167.45 1056.94 1167.35 1056.38 1167.13C1055.82 1166.92 1055.38 1166.63 1055.05 1166.26C1054.72 1165.89 1054.51 1165.48 1054.41 1165.02L1056.65 1164.72C1056.72 1164.9 1056.82 1165.06 1056.97 1165.21C1057.12 1165.36 1057.31 1165.48 1057.56 1165.57C1057.8 1165.67 1058.1 1165.72 1058.45 1165.72C1058.98 1165.72 1059.41 1165.59 1059.76 1165.33C1060.1 1165.08 1060.27 1164.65 1060.27 1164.05V1162.45H1060.17C1060.06 1162.7 1059.91 1162.93 1059.69 1163.14C1059.48 1163.36 1059.21 1163.53 1058.88 1163.67C1058.54 1163.81 1058.14 1163.87 1057.68 1163.87C1057.03 1163.87 1056.43 1163.72 1055.89 1163.42C1055.36 1163.11 1054.93 1162.65 1054.61 1162.02C1054.3 1161.38 1054.14 1160.59 1054.14 1159.62C1054.14 1158.63 1054.3 1157.8 1054.63 1157.14C1054.95 1156.48 1055.38 1155.98 1055.91 1155.65C1056.45 1155.32 1057.04 1155.16 1057.68 1155.16C1058.16 1155.16 1058.57 1155.24 1058.9 1155.41C1059.23 1155.57 1059.5 1155.78 1059.7 1156.02C1059.9 1156.27 1060.06 1156.5 1060.17 1156.74H1060.26V1155.27H1062.66V1164.09C1062.66 1164.83 1062.48 1165.45 1062.12 1165.95C1061.76 1166.45 1061.25 1166.82 1060.61 1167.07C1059.97 1167.33 1059.23 1167.45 1058.4 1167.45ZM1058.45 1162.06C1058.84 1162.06 1059.17 1161.96 1059.44 1161.77C1059.71 1161.57 1059.92 1161.29 1060.06 1160.93C1060.21 1160.56 1060.28 1160.12 1060.28 1159.61C1060.28 1159.1 1060.21 1158.65 1060.07 1158.28C1059.92 1157.9 1059.72 1157.61 1059.44 1157.4C1059.17 1157.19 1058.84 1157.09 1058.45 1157.09C1058.05 1157.09 1057.72 1157.19 1057.44 1157.41C1057.17 1157.62 1056.96 1157.92 1056.82 1158.3C1056.68 1158.67 1056.61 1159.11 1056.61 1159.61C1056.61 1160.11 1056.68 1160.55 1056.82 1160.91C1056.97 1161.28 1057.17 1161.56 1057.44 1161.76C1057.72 1161.96 1058.05 1162.06 1058.45 1162.06Z" fill="black"/>
<path d="M1050.11 1164V1155.27H1052.53V1164H1050.11ZM1051.32 1154.15C1050.96 1154.15 1050.65 1154.03 1050.4 1153.79C1050.14 1153.55 1050.02 1153.26 1050.02 1152.92C1050.02 1152.59 1050.14 1152.3 1050.4 1152.06C1050.65 1151.82 1050.96 1151.7 1051.32 1151.7C1051.68 1151.7 1051.99 1151.82 1052.24 1152.06C1052.5 1152.3 1052.63 1152.59 1052.63 1152.92C1052.63 1153.26 1052.5 1153.55 1052.24 1153.79C1051.99 1154.03 1051.68 1154.15 1051.32 1154.15Z" fill="black"/>
<path d="M1039.65 1164V1152.36H1044.24C1045.12 1152.36 1045.87 1152.52 1046.49 1152.84C1047.12 1153.15 1047.59 1153.59 1047.92 1154.16C1048.25 1154.73 1048.41 1155.4 1048.41 1156.16C1048.41 1156.94 1048.25 1157.6 1047.91 1158.16C1047.58 1158.71 1047.1 1159.14 1046.46 1159.43C1045.84 1159.73 1045.07 1159.88 1044.18 1159.88H1041.11V1157.9H1043.78C1044.25 1157.9 1044.64 1157.83 1044.95 1157.7C1045.26 1157.58 1045.49 1157.38 1045.65 1157.13C1045.8 1156.87 1045.88 1156.55 1045.88 1156.16C1045.88 1155.78 1045.8 1155.45 1045.65 1155.19C1045.49 1154.92 1045.26 1154.72 1044.95 1154.59C1044.64 1154.45 1044.24 1154.38 1043.77 1154.38H1042.11V1164H1039.65ZM1045.94 1158.7L1048.83 1164H1046.11L1043.28 1158.7H1045.94Z" fill="black"/>
<path d="M1033.96 1152.36V1164H1031.54V1152.36H1033.96Z" fill="black"/>
<path d="M1029.61 1152.36V1164H1027.18V1152.36H1029.61Z" fill="black"/>
<path d="M1017.27 1164H1014.63L1018.65 1152.36H1021.82L1025.83 1164H1023.19L1020.28 1155.02H1020.19L1017.27 1164ZM1017.1 1159.43H1023.33V1161.35H1017.1V1159.43Z" fill="black"/>
<path d="M1010.27 1155.27L1007.22 1164H1004.5L1001.44 1155.27H1004L1005.81 1161.52H1005.9L1007.71 1155.27H1010.27Z" fill="black"/>
<path d="M996.787 1164.17C995.889 1164.17 995.116 1163.99 994.469 1163.62C993.825 1163.26 993.329 1162.74 992.98 1162.07C992.632 1161.39 992.457 1160.6 992.457 1159.68C992.457 1158.78 992.632 1157.99 992.98 1157.31C993.329 1156.63 993.819 1156.11 994.452 1155.73C995.088 1155.35 995.834 1155.16 996.69 1155.16C997.266 1155.16 997.802 1155.25 998.298 1155.44C998.798 1155.62 999.234 1155.89 999.605 1156.26C999.98 1156.63 1000.27 1157.09 1000.48 1157.65C1000.69 1158.2 1000.79 1158.85 1000.79 1159.59V1160.26H993.423V1158.76H998.514C998.514 1158.41 998.438 1158.1 998.287 1157.83C998.135 1157.56 997.925 1157.35 997.656 1157.2C997.391 1157.04 997.082 1156.97 996.73 1156.97C996.363 1156.97 996.037 1157.05 995.753 1157.22C995.473 1157.39 995.253 1157.61 995.094 1157.9C994.935 1158.18 994.853 1158.49 994.849 1158.84V1160.26C994.849 1160.69 994.929 1161.07 995.088 1161.38C995.251 1161.7 995.48 1161.94 995.776 1162.11C996.071 1162.28 996.421 1162.36 996.827 1162.36C997.096 1162.36 997.342 1162.33 997.565 1162.25C997.789 1162.17 997.98 1162.06 998.139 1161.91C998.298 1161.76 998.42 1161.57 998.503 1161.35L1000.74 1161.5C1000.63 1162.04 1000.39 1162.51 1000.04 1162.91C999.694 1163.31 999.243 1163.62 998.69 1163.84C998.141 1164.06 997.507 1164.17 996.787 1164.17Z" fill="black"/>
<path d="M985.854 1164.14C985.191 1164.14 984.59 1163.97 984.053 1163.63C983.518 1163.29 983.094 1162.78 982.78 1162.11C982.469 1161.44 982.314 1160.62 982.314 1159.65C982.314 1158.65 982.475 1157.82 982.797 1157.15C983.119 1156.49 983.547 1155.99 984.081 1155.66C984.619 1155.33 985.208 1155.16 985.848 1155.16C986.337 1155.16 986.744 1155.24 987.07 1155.41C987.399 1155.57 987.664 1155.78 987.865 1156.02C988.07 1156.27 988.225 1156.5 988.331 1156.74H988.405V1152.36H990.82V1164H988.433V1162.6H988.331C988.217 1162.84 988.056 1163.09 987.848 1163.32C987.643 1163.56 987.376 1163.75 987.047 1163.91C986.721 1164.06 986.323 1164.14 985.854 1164.14ZM986.621 1162.22C987.011 1162.22 987.34 1162.11 987.609 1161.9C987.882 1161.68 988.09 1161.38 988.234 1160.99C988.382 1160.61 988.456 1160.16 988.456 1159.64C988.456 1159.12 988.384 1158.67 988.24 1158.28C988.096 1157.9 987.888 1157.61 987.615 1157.4C987.342 1157.19 987.011 1157.09 986.621 1157.09C986.223 1157.09 985.888 1157.19 985.615 1157.41C985.342 1157.63 985.136 1157.92 984.996 1158.31C984.856 1158.69 984.785 1159.13 984.785 1159.64C984.785 1160.14 984.856 1160.59 984.996 1160.98C985.14 1161.37 985.346 1161.67 985.615 1161.89C985.888 1162.11 986.223 1162.22 986.621 1162.22Z" fill="black"/>
<path d="M980.575 1158.26V1160.18H975.268V1158.26H980.575Z" fill="black"/>
<path d="M967.257 1167.27C966.95 1167.27 966.662 1167.25 966.393 1167.2C966.128 1167.15 965.909 1167.09 965.734 1167.02L966.28 1165.22C966.564 1165.3 966.82 1165.35 967.047 1165.36C967.278 1165.37 967.477 1165.31 967.643 1165.2C967.814 1165.09 967.952 1164.89 968.058 1164.62L968.2 1164.25L965.07 1155.27H967.615L969.422 1161.68H969.513L971.337 1155.27H973.899L970.507 1164.94C970.344 1165.41 970.123 1165.82 969.842 1166.17C969.566 1166.52 969.215 1166.79 968.791 1166.98C968.367 1167.18 967.856 1167.27 967.257 1167.27Z" fill="black"/>
<path d="M958.807 1164.14C958.144 1164.14 957.544 1163.97 957.006 1163.63C956.472 1163.29 956.047 1162.78 955.733 1162.11C955.422 1161.44 955.267 1160.62 955.267 1159.65C955.267 1158.65 955.428 1157.82 955.75 1157.15C956.072 1156.49 956.5 1155.99 957.034 1155.66C957.572 1155.33 958.161 1155.16 958.801 1155.16C959.29 1155.16 959.697 1155.24 960.023 1155.41C960.352 1155.57 960.617 1155.78 960.818 1156.02C961.023 1156.27 961.178 1156.5 961.284 1156.74H961.358V1152.36H963.773V1164H961.386V1162.6H961.284C961.17 1162.84 961.009 1163.09 960.801 1163.32C960.597 1163.56 960.33 1163.75 960 1163.91C959.674 1164.06 959.277 1164.14 958.807 1164.14ZM959.574 1162.22C959.964 1162.22 960.294 1162.11 960.562 1161.9C960.835 1161.68 961.044 1161.38 961.187 1160.99C961.335 1160.61 961.409 1160.16 961.409 1159.64C961.409 1159.12 961.337 1158.67 961.193 1158.28C961.049 1157.9 960.841 1157.61 960.568 1157.4C960.295 1157.19 959.964 1157.09 959.574 1157.09C959.176 1157.09 958.841 1157.19 958.568 1157.41C958.295 1157.63 958.089 1157.92 957.949 1158.31C957.809 1158.69 957.739 1159.13 957.739 1159.64C957.739 1160.14 957.809 1160.59 957.949 1160.98C958.093 1161.37 958.299 1161.67 958.568 1161.89C958.841 1162.11 959.176 1162.22 959.574 1162.22Z" fill="black"/>
<path d="M948.058 1158.95V1164H945.638V1155.27H947.945V1156.81H948.047C948.24 1156.3 948.564 1155.9 949.018 1155.61C949.473 1155.31 950.024 1155.16 950.672 1155.16C951.278 1155.16 951.806 1155.29 952.257 1155.56C952.708 1155.82 953.058 1156.2 953.308 1156.69C953.558 1157.18 953.683 1157.77 953.683 1158.44V1164H951.263V1158.87C951.267 1158.34 951.13 1157.92 950.854 1157.62C950.577 1157.32 950.196 1157.17 949.712 1157.17C949.386 1157.17 949.098 1157.24 948.848 1157.38C948.602 1157.52 948.409 1157.73 948.268 1157.99C948.132 1158.26 948.062 1158.58 948.058 1158.95Z" fill="black"/>
<path d="M941.278 1164V1155.27H943.699V1164H941.278ZM942.494 1154.15C942.134 1154.15 941.826 1154.03 941.568 1153.79C941.314 1153.55 941.188 1153.26 941.188 1152.92C941.188 1152.59 941.314 1152.3 941.568 1152.06C941.826 1151.82 942.134 1151.7 942.494 1151.7C942.854 1151.7 943.161 1151.82 943.415 1152.06C943.672 1152.3 943.801 1152.59 943.801 1152.92C943.801 1153.26 943.672 1153.55 943.415 1153.79C943.161 1154.03 942.854 1154.15 942.494 1154.15Z" fill="black"/>
<path d="M933.714 1158.95V1164H931.294V1152.36H933.646V1156.81H933.749C933.946 1156.3 934.264 1155.89 934.703 1155.6C935.142 1155.31 935.694 1155.16 936.357 1155.16C936.963 1155.16 937.491 1155.29 937.942 1155.56C938.396 1155.82 938.749 1156.2 938.999 1156.69C939.252 1157.18 939.377 1157.76 939.374 1158.44V1164H936.953V1158.88C936.957 1158.34 936.821 1157.92 936.544 1157.62C936.271 1157.32 935.889 1157.17 935.396 1157.17C935.067 1157.17 934.775 1157.24 934.521 1157.38C934.271 1157.52 934.074 1157.73 933.93 1157.99C933.79 1158.26 933.718 1158.58 933.714 1158.95Z" fill="black"/>
<path d="M929.571 1157.76L927.355 1157.9C927.317 1157.71 927.236 1157.54 927.111 1157.39C926.986 1157.23 926.821 1157.11 926.616 1157.02C926.416 1156.92 926.175 1156.87 925.895 1156.87C925.52 1156.87 925.204 1156.95 924.946 1157.11C924.688 1157.27 924.56 1157.48 924.56 1157.74C924.56 1157.95 924.643 1158.12 924.81 1158.27C924.976 1158.41 925.262 1158.53 925.668 1158.61L927.247 1158.93C928.096 1159.11 928.728 1159.39 929.145 1159.77C929.562 1160.16 929.77 1160.67 929.77 1161.3C929.77 1161.87 929.601 1162.37 929.264 1162.8C928.931 1163.23 928.473 1163.57 927.889 1163.81C927.31 1164.05 926.641 1164.17 925.884 1164.17C924.728 1164.17 923.808 1163.93 923.122 1163.45C922.44 1162.96 922.041 1162.3 921.923 1161.47L924.304 1161.35C924.376 1161.7 924.55 1161.97 924.827 1162.15C925.103 1162.34 925.457 1162.43 925.889 1162.43C926.313 1162.43 926.654 1162.34 926.912 1162.18C927.173 1162.02 927.306 1161.8 927.31 1161.54C927.306 1161.32 927.213 1161.14 927.031 1161C926.849 1160.86 926.569 1160.75 926.19 1160.67L924.679 1160.37C923.827 1160.2 923.192 1159.9 922.776 1159.48C922.363 1159.06 922.156 1158.53 922.156 1157.87C922.156 1157.31 922.308 1156.83 922.611 1156.43C922.918 1156.02 923.348 1155.71 923.901 1155.49C924.457 1155.27 925.109 1155.16 925.855 1155.16C926.957 1155.16 927.825 1155.39 928.457 1155.86C929.094 1156.32 929.465 1156.96 929.571 1157.76Z" fill="black"/>
<path d="M907.159 1158.18C907.159 1157.59 907.303 1157.05 907.591 1156.57C907.879 1156.08 908.265 1155.7 908.75 1155.41C909.235 1155.12 909.773 1154.98 910.364 1154.98C910.879 1154.98 911.356 1155.09 911.795 1155.32C912.235 1155.55 912.597 1155.85 912.881 1156.24C913.165 1156.63 913.335 1157.07 913.392 1157.56H911.705C911.648 1157.28 911.491 1157.05 911.233 1156.87C910.979 1156.69 910.689 1156.6 910.364 1156.6C910.072 1156.6 909.805 1156.67 909.563 1156.81C909.324 1156.95 909.133 1157.14 908.989 1157.38C908.845 1157.62 908.773 1157.88 908.773 1158.18C908.773 1158.47 908.845 1158.73 908.989 1158.98C909.133 1159.22 909.324 1159.41 909.563 1159.55C909.805 1159.7 910.072 1159.77 910.364 1159.77C910.689 1159.77 910.972 1159.68 911.21 1159.5C911.449 1159.32 911.598 1159.09 911.659 1158.8H913.347C913.29 1159.29 913.123 1159.73 912.847 1160.12C912.57 1160.51 912.216 1160.82 911.784 1161.05C911.352 1161.27 910.879 1161.39 910.364 1161.39C909.773 1161.39 909.235 1161.24 908.75 1160.95C908.265 1160.67 907.879 1160.28 907.591 1159.8C907.303 1159.31 907.159 1158.77 907.159 1158.18ZM910.318 1164.18C909.492 1164.18 908.716 1164.03 907.989 1163.72C907.265 1163.41 906.627 1162.98 906.074 1162.43C905.525 1161.87 905.093 1161.23 904.778 1160.51C904.468 1159.79 904.314 1159.01 904.318 1158.18C904.322 1157.35 904.479 1156.58 904.79 1155.85C905.104 1155.13 905.536 1154.49 906.085 1153.94C906.634 1153.39 907.271 1152.96 907.994 1152.65C908.718 1152.34 909.492 1152.18 910.318 1152.18C911.148 1152.18 911.924 1152.34 912.648 1152.65C913.375 1152.96 914.011 1153.39 914.557 1153.94C915.106 1154.49 915.536 1155.13 915.847 1155.85C916.157 1156.58 916.314 1157.35 916.318 1158.18C916.322 1159.01 916.169 1159.79 915.858 1160.51C915.547 1161.23 915.117 1161.87 914.568 1162.43C914.019 1162.98 913.381 1163.41 912.653 1163.72C911.926 1164.03 911.148 1164.18 910.318 1164.18ZM910.318 1162.29C910.89 1162.29 911.424 1162.18 911.92 1161.97C912.42 1161.76 912.858 1161.47 913.233 1161.09C913.608 1160.71 913.902 1160.28 914.114 1159.78C914.326 1159.29 914.43 1158.76 914.426 1158.19C914.426 1157.62 914.318 1157.08 914.102 1156.59C913.89 1156.09 913.597 1155.65 913.222 1155.27C912.847 1154.9 912.411 1154.6 911.915 1154.39C911.419 1154.18 910.886 1154.07 910.318 1154.07C909.754 1154.07 909.223 1154.18 908.727 1154.39C908.235 1154.6 907.799 1154.9 907.42 1155.28C907.045 1155.65 906.75 1156.09 906.534 1156.59C906.318 1157.09 906.21 1157.62 906.21 1158.19C906.206 1158.75 906.311 1159.28 906.523 1159.78C906.739 1160.27 907.034 1160.71 907.409 1161.09C907.788 1161.46 908.225 1161.76 908.722 1161.97C909.218 1162.18 909.75 1162.29 910.318 1162.29Z" fill="black"/>
<path d="M495.423 871.021L493.715 870.948C487.296 870.672 492.687 870.903 496.368 871.062C538.933 872.884 585.469 873.064 628.031 871.004C713.454 870.977 724.25 421.122 642.368 416.562L623.982 400.745C581.746 363.425 525.559 339.331 469.006 337.433L466.804 337.334C453.941 336.805 441.337 337.831 428.568 339.245L426.267 339.496C371.566 345.549 320.812 368.502 280.006 405.433L278.062 407.189C270.984 413.618 264.086 420.036 258.006 427.433L255.572 430.206C244.199 443.205 234.475 457.391 226.006 472.433L224.878 474.431C190.983 535.054 183.175 606.218 202.015 673.011C210.328 700.698 222.334 727.424 240.006 750.433L242.021 753.089C249.375 762.535 257.669 771.169 266.068 779.683L267.766 781.42C269.14 782.797 270.569 784.121 272.006 785.433L273.368 786.562C273.368 786.562 369.762 860.764 422.515 865.824C425.069 866.07 427.624 866.318 430.178 866.57C451.885 868.704 473.635 870.08 495.423 871.021Z" fill="url(#paint0_linear_30_3)"/>
<path d="M467.626 317.351C453.243 316.759 439.456 317.918 426.401 319.363L426.4 319.362L424.1 319.613L424.067 319.617C365.163 326.136 310.488 350.87 266.585 390.604H266.586L264.652 392.351L264.614 392.385C257.614 398.744 249.825 405.94 242.782 414.459L240.539 417.015L240.52 417.036C228.119 431.209 217.628 446.549 208.589 462.601L207.461 464.599L207.421 464.67C170.88 530.025 162.52 606.665 182.766 678.44C182.796 678.548 182.827 678.655 182.859 678.762C191.656 708.059 204.597 737.166 224.144 762.615L226.089 765.179C226.139 765.244 226.189 765.31 226.239 765.375C234.352 775.796 243.343 785.123 251.765 793.66L251.764 793.661L253.462 795.398C253.51 795.448 253.559 795.498 253.608 795.547C255.327 797.269 257.04 798.85 258.52 800.201C258.755 800.416 258.996 800.626 259.241 800.83L260.604 801.96C260.79 802.114 260.978 802.263 261.169 802.41L273.368 786.563L272.006 785.433C270.928 784.449 269.855 783.458 268.807 782.443L267.766 781.42L266.068 779.683C258.194 771.701 250.413 763.614 243.411 754.851L242.021 753.089L240.006 750.433C222.887 728.143 211.083 702.365 202.805 675.604L202.015 673.011C183.322 606.74 190.862 536.166 224.088 475.854L224.878 474.431L226.006 472.433C234.475 457.392 244.199 443.205 255.572 430.206L258.006 427.433C263.326 420.961 269.273 415.238 275.418 409.602L278.062 407.189L280.006 405.433C320.812 368.502 371.566 345.55 426.267 339.496L428.568 339.245C441.338 337.831 453.941 336.805 466.804 337.334L469.006 337.433C525.56 339.331 581.746 363.425 623.982 400.745L642.368 416.563C724.25 421.122 713.454 870.977 628.031 871.004C586.799 872.999 541.838 872.893 500.37 871.229L496.368 871.063C496.05 871.049 495.72 871.034 495.385 871.02C474.971 870.137 454.591 868.873 434.248 866.961L430.178 866.569C427.624 866.318 425.069 866.07 422.515 865.824C369.797 860.768 273.494 786.66 273.368 786.563C261.316 802.219 261.172 802.41 261.173 802.414C261.174 802.415 261.178 802.417 261.181 802.419C261.186 802.423 261.192 802.429 261.2 802.436C261.217 802.448 261.239 802.465 261.268 802.486C261.324 802.53 261.404 802.591 261.506 802.669C261.71 802.825 262.004 803.05 262.385 803.338C263.146 803.915 264.254 804.749 265.671 805.804C268.504 807.913 272.586 810.912 277.639 814.517C287.728 821.715 301.775 831.391 317.56 841.256C333.295 851.091 351.047 861.296 368.508 869.433C385.613 877.404 403.997 884.139 420.604 885.732L420.605 885.731L428.22 886.474C448.736 888.491 469.221 889.836 489.641 890.781C489.643 890.784 489.645 890.787 489.647 890.79C489.714 890.794 489.798 890.797 489.815 890.798C489.823 890.798 489.835 890.799 489.84 890.799C489.848 890.799 489.854 890.8 489.856 890.8C489.865 890.8 489.874 890.801 489.879 890.801C489.885 890.801 489.893 890.801 489.902 890.802C489.904 890.802 489.905 890.802 489.907 890.802C489.926 890.803 489.954 890.803 489.989 890.805H489.992C490.08 890.808 490.217 890.816 490.395 890.823C491.399 890.866 493.666 890.964 495.504 891.044H495.513C538.465 892.882 585.468 893.071 628.624 890.997C648.801 890.734 663.384 877.252 673.108 862.846C683.155 847.961 690.968 828.015 697.093 805.984C709.423 761.633 716.334 703.508 717.932 646.038C719.529 588.558 715.853 530.19 706.241 485.301C701.468 463.008 694.963 442.731 686.073 427.376C678.606 414.478 667.321 401.6 651.122 397.709L637.052 385.606C591.692 345.595 531.288 319.555 469.84 317.45L467.699 317.354L467.626 317.351ZM489.919 890.803C489.929 890.803 489.964 890.805 489.988 890.806L489.989 890.805C489.952 890.803 489.923 890.803 489.902 890.802C489.899 890.802 489.896 890.802 489.895 890.802C489.897 890.802 489.907 890.802 489.919 890.803Z" fill="#3A2910"/>
<path d="M326.949 504.981C324.314 507.398 321.744 509.878 319.173 512.363C317.787 513.649 317.787 513.649 316.373 514.961C291.553 538.614 278.182 573.057 277.316 607.035C276.695 643.008 287.981 673.616 312.754 699.824C313.538 700.665 314.321 701.506 315.128 702.372C333.407 721.416 357.915 731.733 384.11 732.274C412.775 732.481 438.637 723.343 459.32 703.038C460.135 702.26 460.95 701.483 461.79 700.682C478.333 683.773 484.282 661.519 484.335 638.49C484.052 618.021 475.508 600.336 461.234 585.874C447.324 572.766 433.341 568.582 414.768 568.84C407.698 569.088 401.608 570.576 395.13 573.422C394.139 573.851 393.147 574.28 392.126 574.723C380.01 580.659 370.006 590.174 364.106 602.344C363.758 603.052 363.411 603.761 363.053 604.491C358.695 614.021 358.172 625.308 361.565 635.217C366.596 647.343 372.636 655.76 384.545 661.516C390.845 664.052 398.563 664.663 405.507 663.485C408.712 662.941 411.826 661.826 414.585 660.105C415.527 659.518 416.369 658.875 417.116 658.101C419.47 655.659 420.109 652.067 420.197 648.677C420.215 647.998 420.188 647.431 420.105 646.915C419.522 643.282 416.129 640.572 412.603 639.521C411.466 639.182 410.286 638.993 408.923 638.88C407.587 638.77 406.259 638.978 404.988 639.403C404.133 639.688 403.235 639.876 402.337 639.939C399.208 640.16 396.115 640.221 393.168 639.511C390.066 638.763 387.528 636.453 386.572 633.409C385.771 631.537 385.072 629.614 384.703 627.612C383.418 620.621 384.351 614.664 388.072 608.043C393.689 599.875 401.69 595.237 411.178 592.703C423.705 590.947 432.76 593.796 442.859 601.172C451.388 608.665 458.53 621.252 459.541 632.7C460.29 652.797 457.51 669.436 444.008 685.229C429.724 700.135 409.585 708.261 389.094 708.845C380.029 708.901 371.644 708.243 363.036 705.18C362 704.828 360.964 704.476 359.897 704.113C338.208 695.951 322.278 678.842 311.881 658.536C299.249 630.483 298.3 598.512 308.734 569.63C313.729 556.544 321.027 545.623 329.871 534.858C330.43 534.134 330.988 533.411 331.564 532.665C350.091 509.356 383.385 495.326 412.248 492.01C417.534 491.705 422.8 491.651 428.094 491.675C428.803 491.678 429.512 491.68 430.242 491.683C463.996 491.879 495.952 505.88 519.789 529.95C546.958 559.078 557.576 599.385 563.092 637.694C563.214 638.522 563.335 639.349 563.46 640.202C569.068 683.491 560.523 730.226 539.556 768.381C538.954 769.508 538.351 770.635 537.73 771.796C530.728 784.407 521.59 795.395 511.741 805.874C510.88 806.82 510.88 806.82 510.003 807.786C498.013 820.481 482.374 830.556 467.878 840.152C463.343 844.18 453.714 850.607 458.529 850.607C471.739 850.607 484.739 857.034 522.439 827.298C524.03 825.729 524.03 825.729 526.117 824.084C563.373 792.146 583.65 738.711 587.477 690.849C588.68 669.733 588.928 647.9 585.559 626.982C585.426 626.1 585.294 625.219 585.158 624.311C577.606 574.695 557.081 525.293 515.64 494.663C495.966 480.669 472.619 471.413 448.622 468.443C447.685 468.326 446.749 468.208 445.784 468.088C402.543 463.633 359.598 475.785 326.949 504.981Z" fill="#3A2910"/>
<path d="M904.929 237.563C895.805 243.083 888.89 251.223 885.59 261.41C883.081 273.389 884.682 284.396 890.929 294.938C891.589 295.804 892.249 296.67 892.929 297.563C893.813 298.773 893.813 298.773 894.715 300.008C897.075 302.731 899.272 304.243 902.367 306.063C908.297 309.604 908.297 309.604 912.929 314.563C913.247 328.259 904.071 375.645 898.062 394.851C896.764 399 893.64 402.622 889.294 402.711C884.804 402.803 880.276 401.143 875.804 399.813C865.704 396.939 855.609 394.69 845.253 392.953C843.227 392.613 841.205 392.246 839.183 391.875C808.429 387.025 775.384 390.623 746.117 400.875C742.277 402.213 740.511 402.697 737.669 402.149C735.323 401.696 733.295 400.314 732.302 398.14C730.768 394.784 729.292 390.034 729.292 390.034C729.292 390.034 713.292 334.192 714.929 314.563C718.241 309.649 723.994 306.775 728.929 303.563C735.85 298.895 740.363 291.589 742.457 283.563C744.489 270.666 743.508 259.658 735.742 248.875C729.375 241.208 721.102 234.464 710.906 233.34C697.914 232.431 687.181 234.045 676.929 242.649C669.354 249.898 664.444 259.01 663.726 269.543C663.546 281.856 666.335 292.096 674.64 301.5C679.441 306.038 684.904 308.756 690.879 311.496C699.638 317.43 700.895 328.149 703.066 337.778C707.612 357.32 712.051 376.888 716.596 396.43C717.669 400.603 718.116 402.343 718.004 404.451C717.789 408.491 715.403 412.133 712.037 414.376C710.38 415.481 708.661 416.505 706.929 417.563C674.623 439.193 651.465 466.577 634.929 501.563C634.406 502.656 633.883 503.749 633.343 504.875C622.383 529.001 617.741 554.325 617.744 580.688C617.742 582.796 617.724 584.904 617.705 587.012C617.648 600.219 618.65 613.175 622.742 625.813C623.008 626.659 623.273 627.506 623.547 628.378C628.481 643.813 635.341 658.183 645.929 670.563C646.583 671.349 647.237 672.135 647.91 672.946C662.233 689.59 680.441 699.775 699.557 710.035C700.36 710.469 701.164 710.902 701.992 711.348C702.705 711.728 703.418 712.109 704.152 712.501C706.09 713.561 706.09 713.561 707.929 715.563C708.271 721.841 706.108 727.361 703.367 732.875C703.01 733.61 702.653 734.345 702.285 735.102C693.316 753.134 679.474 769.796 663.929 782.563C662.777 783.539 661.625 784.516 660.472 785.492C644.271 799.094 626.813 809.118 607.929 818.563C607.209 818.93 606.488 819.297 605.746 819.675C530.383 857.934 430.908 880.661 348.742 853.875C331.172 847.894 315.138 839.605 299.589 829.527C297.929 828.563 297.929 828.563 294.929 827.563C292.843 828.177 292.843 828.177 290.414 829.231C289.049 829.819 289.049 829.819 287.657 830.42C286.674 830.859 285.692 831.298 284.679 831.75C283.659 832.202 282.638 832.654 281.587 833.12C258.126 843.662 236.81 856.247 216.929 872.563C216.151 873.175 215.372 873.787 214.57 874.418C207.908 879.854 200.16 888.162 198.488 896.86C198.245 901.79 198.626 904.923 201.804 908.813C227.868 934.517 280.515 939.78 314.694 945.974C316.837 946.364 318.978 946.76 321.118 947.163C369.398 956.247 418.76 961.016 467.742 964.313C469.044 964.401 469.044 964.401 470.373 964.492C499.768 966.463 529.156 966.777 558.606 966.803C562.75 966.807 566.893 966.821 571.037 966.844C593.724 966.966 616.298 966.681 638.941 965.168C639.887 965.105 640.832 965.042 641.806 964.977C658.282 963.853 674.6 962.049 690.929 959.563C691.997 959.407 693.064 959.251 694.164 959.091C725.163 954.541 755.658 946.216 783.929 932.563C784.605 932.245 785.28 931.927 785.976 931.599C815.42 917.732 841.976 897.226 861.656 871.242C862.789 869.747 863.939 868.264 865.09 866.781C870.861 859.163 875.481 851 879.929 842.563C880.526 841.437 881.123 840.312 881.738 839.153C890.311 821.907 896.693 802.716 898.929 783.563C899.016 782.864 899.103 782.166 899.192 781.446C899.968 774.649 899.997 767.967 899.886 761.133C899.864 758.768 899.843 756.404 899.822 754.039C899.785 750.346 899.741 746.653 899.683 742.959C899.628 739.371 899.599 735.784 899.574 732.196C899.55 731.088 899.526 729.981 899.502 728.84C899.497 727.297 899.497 727.297 899.491 725.723C899.479 724.821 899.467 723.918 899.455 722.989C900.081 719.785 901.454 718.614 903.929 716.563C905.915 715.543 905.915 715.543 908.062 714.922C908.859 714.661 909.656 714.399 910.477 714.13C911.328 713.86 912.178 713.591 913.054 713.313C948.358 701.471 977.3 681.66 994.529 647.799C1004.37 627.61 1008.36 606.642 1008.3 584.313C1008.3 583.527 1008.3 582.74 1008.3 581.93C1008.17 540.298 994.221 500.315 969.929 466.563C969.528 466.004 969.126 465.445 968.712 464.869C953.47 443.917 934.417 427.165 912.75 413.063C909.322 410.238 909.371 405.281 910.352 400.949C914.781 381.407 927.792 327.192 927.792 327.192C929.187 321.123 930.292 317.192 933.929 312.563C937.185 310.625 937.185 310.625 940.742 309.125C951.835 303.91 958.32 297.203 963.07 285.832C965.49 276.627 965.526 264.299 961.254 255.696C948.99 235.943 926.749 226.812 904.929 237.563Z" fill="url(#paint1_linear_30_3)"/>
<path d="M978.246 245.146C961.766 218.605 929.381 203.704 896.858 219.249L896.09 219.622L895.704 219.817C895.322 220.016 894.946 220.228 894.577 220.451C881.97 228.079 871.815 239.661 866.798 254.535L866.563 255.246L866.406 255.757C866.255 256.269 866.124 256.788 866.014 257.311C862.538 273.909 864.789 290.056 873.724 305.134C874.119 305.8 874.552 306.443 875.021 307.059C875.638 307.868 876.255 308.677 876.888 309.508C877.662 310.568 877.699 310.62 878.561 311.801C878.89 312.251 879.238 312.688 879.603 313.109C883.951 318.124 888.196 320.924 892.114 323.233L892.113 323.234C892.177 323.273 892.24 323.31 892.301 323.347C891.546 329.711 890.143 338.696 888.214 348.939C886.052 360.423 883.532 371.916 881.298 380.581C881.292 380.579 881.285 380.578 881.279 380.576C871.112 377.683 860.966 375.386 850.63 373.583L848.56 373.229C846.692 372.914 844.795 372.571 842.793 372.204L842.299 372.119C810.712 367.137 777.326 370.168 747.122 379.491C746.831 378.421 746.502 377.204 746.145 375.86C744.708 370.46 742.817 363.088 740.983 355.154C739.139 347.18 737.404 338.857 736.236 331.5C735.728 328.302 735.375 325.556 735.146 323.268C735.315 323.162 735.491 323.051 735.675 322.937C736.751 322.269 738.368 321.283 739.839 320.325C739.931 320.266 740.022 320.206 740.113 320.145C751.805 312.259 758.73 300.412 761.809 288.612C761.976 287.974 762.111 287.328 762.213 286.676C764.74 270.64 763.855 253.687 751.97 237.187L751.559 236.635C751.419 236.453 751.275 236.275 751.128 236.099C743.477 226.885 730.914 215.425 713.098 213.46L712.701 213.42C712.568 213.408 712.435 213.398 712.302 213.389C696.72 212.299 680.306 214.085 664.809 226.72L664.072 227.329L663.579 227.757C663.418 227.902 663.258 228.049 663.101 228.199C652.697 238.156 645.122 251.472 643.829 267.422L643.773 268.184L643.744 268.717C643.736 268.895 643.732 269.073 643.729 269.251C643.494 285.326 647.326 300.783 659.649 314.738C660.047 315.189 660.466 315.622 660.903 316.035C667.289 322.071 674.23 325.765 679.931 328.462C680.104 328.768 680.353 329.275 680.646 330.081C681.077 331.268 681.497 332.784 681.98 334.897C682.219 335.944 682.45 337.027 682.711 338.265C682.962 339.452 683.249 340.816 683.556 342.177C683.566 342.221 683.576 342.265 683.586 342.31C685.852 352.049 688.092 361.8 690.339 371.582C692.528 381.11 694.725 390.668 696.947 400.225L696.503 400.495L696.151 400.716C696.034 400.791 695.917 400.867 695.802 400.944C660.424 424.632 634.919 454.817 616.89 492.926L615.304 496.238L615.134 496.603C602.826 523.694 597.744 551.9 597.745 580.668L597.731 583.714L597.705 586.833V586.926C597.645 601.045 598.683 616.34 603.661 631.802L603.66 631.803C603.925 632.649 604.191 633.496 604.465 634.368C604.476 634.401 604.486 634.435 604.496 634.468C609.936 651.484 617.827 668.398 630.549 683.346L630.548 683.347C631.202 684.133 631.855 684.919 632.529 685.729C632.602 685.817 632.676 685.905 632.75 685.991C648.285 704.044 667.422 715.36 685.003 724.906C684.795 725.335 684.585 725.767 684.371 726.206C677.025 740.973 665.575 755.035 652.506 766.05L651.002 767.302C649.872 768.259 648.742 769.217 647.613 770.175L646.251 771.306C633.052 782.155 618.674 790.659 602.381 798.96L598.855 800.74C598.141 801.104 597.428 801.467 596.693 801.841C523.813 838.84 430.176 859.324 355.076 834.902C339.413 829.558 324.896 822.096 310.467 812.744L310.056 812.485C309.918 812.401 309.779 812.317 309.639 812.235C309.005 811.867 307.49 810.955 305.532 810.129C304.052 809.505 302.373 808.962 301.254 808.589L300.524 808.361C296.858 807.293 292.958 807.295 289.285 808.376C286.276 809.261 285.487 809.567 282.495 810.865L279.737 812.055L279.497 812.16C278.534 812.59 277.571 813.021 276.581 813.464L273.488 814.833L273.389 814.877C248.668 825.986 225.855 839.402 204.459 856.926L202.206 858.697L201.926 858.922C197.766 862.316 192.995 866.815 188.849 872.164C184.947 877.199 180.768 884.053 179.01 892.284L178.847 893.085L178.727 893.777C178.619 894.472 178.547 895.172 178.512 895.874C178.367 898.813 178.264 903.196 179.438 907.987C180.723 913.229 183.172 917.62 186.319 921.47C186.771 922.023 187.253 922.551 187.761 923.053C204.695 939.753 228.691 948.561 250.241 954.084C271.84 959.62 295.363 962.797 311.127 965.654L311.128 965.653C313.227 966.035 315.324 966.423 317.418 966.817L317.419 966.818C366.821 976.114 417.074 980.946 466.383 984.266L466.382 984.267C467.033 984.311 467.359 984.333 467.688 984.355C468.017 984.378 468.349 984.4 469.013 984.445C469.02 984.446 469.027 984.447 469.035 984.447C499.123 986.464 529.061 986.775 558.586 986.802L558.585 986.803C562.698 986.807 566.812 986.821 570.926 986.844H570.929C593.827 986.967 616.942 986.683 640.274 985.124C640.746 985.093 641.218 985.061 641.693 985.029C642.169 984.997 642.649 984.965 643.136 984.933C643.147 984.932 643.157 984.931 643.167 984.931C660.161 983.771 676.989 981.911 693.818 979.353C694.885 979.197 695.953 979.041 697.053 978.881C697.058 978.88 697.064 978.88 697.069 978.879C729.572 974.109 762.036 965.319 792.448 950.658L794.495 949.694L794.497 949.693C826.552 934.597 855.764 912.144 877.591 883.328L879.205 881.219C879.753 880.508 880.312 879.788 880.885 879.05C880.934 878.986 880.983 878.922 881.032 878.858C887.809 869.912 893.035 860.589 897.621 851.89C898.21 850.779 898.8 849.667 899.407 848.523C899.489 848.369 899.569 848.213 899.647 848.056C909.017 829.207 916.208 807.846 918.777 786.028C918.862 785.339 918.951 784.623 919.039 783.913C919.048 783.847 919.056 783.779 919.064 783.713C919.993 775.572 919.998 767.824 919.884 760.81C919.862 758.495 919.842 756.18 919.822 753.865L919.821 753.838C919.783 750.124 919.74 746.388 919.68 742.641C919.628 739.198 919.6 735.738 919.576 732.22C958.212 719.229 992.118 696.641 1012.35 656.869C1012.41 656.766 1012.46 656.663 1012.51 656.56C1023.89 633.2 1028.37 609.132 1028.3 584.261C1028.3 583.487 1028.3 582.713 1028.3 581.916V581.867C1028.16 535.751 1012.7 491.754 986.163 454.88C985.762 454.323 985.361 453.766 984.949 453.192L984.885 453.104C969.683 432.206 951.236 415.304 930.83 401.124C933.179 390.928 936.88 375.28 940.19 361.372C942.091 353.384 943.853 346.005 945.141 340.622C945.785 337.931 946.309 335.74 946.673 334.222C946.855 333.463 946.997 332.872 947.093 332.471C947.141 332.27 947.178 332.117 947.203 332.015C947.215 331.963 947.225 331.924 947.231 331.898C947.234 331.886 947.236 331.876 947.238 331.869C947.238 331.866 947.239 331.864 947.24 331.862V331.86C947.255 331.798 947.269 331.736 947.284 331.674C947.742 329.679 948.053 328.47 948.302 327.644C948.37 327.615 948.44 327.585 948.512 327.555C948.761 327.45 949.008 327.34 949.252 327.225C964.788 319.92 974.844 309.534 981.525 293.541C981.881 292.688 982.178 291.81 982.413 290.916C985.594 278.816 986.289 261.146 979.167 246.802L978.952 246.379C978.731 245.96 978.495 245.549 978.246 245.146ZM904.929 237.562C926.748 226.812 948.989 235.943 961.253 255.695L961.451 256.102C965.524 264.684 965.451 276.771 963.07 285.832C958.32 297.203 951.834 303.909 940.742 309.125L938.635 310.022C936.982 310.746 936.371 311.109 933.929 312.563C930.292 317.192 929.188 321.123 927.792 327.192C927.792 327.192 914.781 381.407 910.353 400.949C909.371 405.281 909.322 410.238 912.749 413.062C934.416 427.164 953.47 443.917 968.711 464.869L969.929 466.562L971.061 468.149C994.654 501.565 1008.17 540.949 1008.3 581.931L1008.3 584.312C1008.36 606.641 1004.37 627.61 994.529 647.8C977.3 681.66 948.358 701.471 913.054 713.312L910.477 714.13C909.656 714.399 908.859 714.66 908.062 714.922L906.789 715.297C905.791 715.606 905.418 715.797 903.929 716.562C901.453 718.614 900.082 719.785 899.455 722.988C899.468 723.918 899.48 724.821 899.492 725.724L899.502 728.84C899.527 729.981 899.55 731.088 899.574 732.195L899.618 737.577C899.635 739.371 899.656 741.165 899.683 742.959C899.742 746.652 899.784 750.346 899.822 754.039L899.886 761.133C899.997 767.967 899.968 774.649 899.193 781.446C899.103 782.166 899.016 782.864 898.929 783.562C896.692 802.716 890.311 821.907 881.738 839.152C881.123 840.312 880.526 841.437 879.929 842.562C875.481 851 870.861 859.162 865.089 866.781C863.938 868.263 862.79 869.747 861.656 871.242C841.976 897.226 815.42 917.732 785.976 931.6C785.28 931.927 784.604 932.245 783.929 932.562C755.658 946.216 725.163 954.541 694.164 959.091C693.065 959.251 691.997 959.407 690.929 959.562C674.6 962.048 658.282 963.853 641.806 964.978C640.832 965.042 639.886 965.105 638.941 965.168C617.713 966.586 596.546 966.926 575.289 966.862L571.037 966.844C566.893 966.821 562.749 966.807 558.606 966.803C530.076 966.777 501.605 966.482 473.128 964.672L470.372 964.492C469.044 964.402 469.044 964.401 467.742 964.312C420.291 961.119 372.482 956.544 325.647 948.002L321.118 947.163C318.978 946.76 316.836 946.364 314.694 945.975C280.782 939.829 228.69 934.599 202.42 909.411L201.804 908.812C198.824 905.166 198.304 902.184 198.451 897.764L198.488 896.859C200.107 888.434 207.43 880.374 213.943 874.937L214.57 874.418C215.372 873.787 216.151 873.175 216.929 872.562C236.188 856.757 256.795 844.453 279.394 834.114L281.587 833.12L284.679 831.75L287.657 830.42L290.414 829.23C292.842 828.177 292.842 828.176 294.929 827.562C297.929 828.562 297.93 828.563 299.589 829.527L301.048 830.467C316.141 840.121 331.721 848.08 348.742 853.875L350.671 854.494C431.818 880.102 529.422 857.989 603.975 820.568L605.746 819.675L607.929 818.562C626.813 809.117 644.27 799.094 660.472 785.492L663.929 782.562C679.474 769.796 693.316 753.134 702.285 735.103L703.367 732.875C706.108 727.361 708.271 721.841 707.929 715.562C706.09 713.561 706.09 713.561 704.152 712.501C703.417 712.109 702.704 711.728 701.992 711.348C701.164 710.901 700.361 710.468 699.557 710.035C680.74 699.935 662.802 689.908 648.584 673.721L647.91 672.945C647.236 672.135 646.583 671.349 645.929 670.562C635.671 658.569 628.913 644.709 624.015 629.821L623.547 628.378C623.273 627.506 623.007 626.659 622.742 625.812C618.906 613.964 617.786 601.837 617.707 589.485L617.704 587.012C617.723 584.904 617.742 582.796 617.745 580.688C617.742 554.737 622.239 529.792 632.834 506.007L633.343 504.875C633.882 503.749 634.406 502.656 634.929 501.562C651.206 467.123 673.902 440.051 705.422 418.581L706.929 417.562C708.444 416.637 709.949 415.738 711.413 414.787L712.038 414.376C715.403 412.133 717.789 408.49 718.004 404.451C718.117 402.343 717.669 400.603 716.596 396.431C712.051 376.888 707.612 357.32 703.066 337.777C700.895 328.149 699.638 317.429 690.878 311.496C685.09 308.841 679.783 306.207 675.092 301.92L674.64 301.5C666.595 292.389 663.726 282.495 663.718 270.691L663.726 269.543C664.421 259.339 669.052 250.469 676.227 243.334L676.929 242.648C687.18 234.045 697.913 232.431 710.906 233.34L711.382 233.396C721.359 234.675 729.474 241.327 735.742 248.875L736.101 249.381C743.538 260.002 744.457 270.868 742.456 283.563C740.362 291.588 735.85 298.895 728.929 303.563C723.994 306.775 718.24 309.649 714.929 314.563C713.293 334.175 729.265 389.939 729.292 390.034C729.292 390.034 730.768 394.785 732.302 398.141C733.296 400.314 735.323 401.696 737.669 402.148C740.156 402.628 741.819 402.318 744.768 401.337L746.117 400.875C775.384 390.622 808.428 387.024 839.183 391.875L842.216 392.426C843.228 392.606 844.24 392.783 845.253 392.953L847.192 393.285C856.87 394.973 866.335 397.118 875.804 399.812C880.136 401.101 884.521 402.7 888.872 402.715L889.293 402.711C893.639 402.622 896.764 399 898.062 394.852C904.072 375.646 913.247 328.259 912.929 314.563C908.297 309.604 908.296 309.604 902.367 306.063C899.465 304.356 897.353 302.921 895.156 300.505L894.714 300.008L892.929 297.563L890.929 294.938C884.877 284.725 883.186 274.076 885.367 262.53L885.589 261.41C888.787 251.541 895.376 243.594 904.08 238.088L904.929 237.562Z" fill="#3A2910"/>
<path d="M680.292 273.192C680.292 285.895 690.59 296.192 703.292 296.192C715.995 296.192 726.292 285.895 726.292 273.192C726.292 260.49 715.995 250.192 703.292 250.192C690.59 250.192 680.292 260.49 680.292 273.192Z" fill="#3A2910"/>
<path d="M902.292 274.192C902.292 286.895 912.59 297.192 925.292 297.192C937.995 297.192 948.292 286.895 948.292 274.192C948.292 261.49 937.995 251.192 925.292 251.192C912.59 251.192 902.292 261.49 902.292 274.192Z" fill="#3A2910"/>
<path d="M851.692 600.043C851.128 600.064 850.563 600.147 850.029 600.329C845.588 601.846 843.515 606.213 841.117 610.063C836.595 617.025 829.77 620.331 821.929 622.563C811.11 624.124 799.371 623.373 789.929 617.563C785.765 613.921 782.64 609.727 779.617 605.125C777.214 601.477 772.395 599.693 768.444 601.557C767.754 601.883 767.061 602.284 766.329 602.763C765.428 603.352 764.652 604.122 764.084 605.036C762.32 607.878 762.332 609.648 762.929 613.563C766.624 624.386 775.114 631.35 784.929 636.563C799.954 643.375 816.304 644.573 832.078 639.563C844.001 634.904 854.69 627.728 860.367 615.938C861.25 613.702 861.945 611.748 862.156 609.658C862.428 606.955 861.291 604.245 859.268 602.433C857.221 600.598 854.975 599.921 851.692 600.043Z" fill="#3A2910"/>
<path d="M851.691 600.043C851.128 600.064 850.563 600.147 850.029 600.329C845.588 601.846 843.515 606.212 841.117 610.062C836.595 617.024 829.77 620.331 821.93 622.562C811.111 624.124 799.372 623.373 789.93 617.562C785.766 613.921 782.64 609.726 779.617 605.125C777.215 601.477 772.395 599.693 768.444 601.558C767.755 601.883 767.061 602.284 766.329 602.763C765.428 603.352 764.652 604.122 764.084 605.036C762.32 607.878 762.333 609.648 762.93 613.562L763.106 614.067C766.89 624.604 775.268 631.431 784.93 636.562L785.635 636.878C800.229 643.307 816.04 644.458 831.338 639.793L832.078 639.562C843.814 634.976 854.356 627.951 860.098 616.487L860.367 615.937C861.195 613.842 861.857 611.993 862.11 610.048L862.155 609.658C862.411 607.125 861.427 604.584 859.637 602.783L859.268 602.433C857.221 600.598 854.975 599.921 851.691 600.043ZM851.729 601.042C854.82 600.927 856.791 601.556 858.601 603.178C860.402 604.793 861.398 607.195 861.16 609.558C860.965 611.488 860.325 613.321 859.45 615.537C853.928 626.976 843.527 634.009 831.752 638.616C816.241 643.537 800.165 642.364 785.372 635.665C775.694 630.521 767.493 623.742 763.905 613.322C763.616 611.413 763.491 610.132 763.615 609.008C763.737 607.906 764.108 606.894 764.934 605.563C765.418 604.782 766.089 604.115 766.877 603.599C767.581 603.139 768.234 602.763 768.871 602.462C772.295 600.846 776.604 602.367 778.782 605.674L778.781 605.675C781.822 610.304 785.007 614.586 789.271 618.315L789.334 618.371L789.405 618.414C799.126 624.396 811.135 625.131 822.072 623.553L822.139 623.543L822.203 623.524C830.138 621.266 837.241 617.867 841.956 610.607L841.966 610.592C843.208 608.597 844.265 606.643 845.596 604.935C846.9 603.262 848.381 601.949 850.353 601.275C850.772 601.132 851.235 601.06 851.729 601.042Z" fill="black"/>
<path d="M638.292 615.692C638.292 634.194 653.291 649.192 671.792 649.192C690.294 649.192 705.292 634.194 705.292 615.692C705.292 597.191 690.294 582.192 671.792 582.192C653.291 582.192 638.292 597.191 638.292 615.692Z" fill="#FC8A8B"/>
<path d="M921.292 615.692C921.292 634.194 936.291 649.192 954.792 649.192C973.294 649.192 988.292 634.194 988.292 615.692C988.292 597.191 973.294 582.192 954.792 582.192C936.291 582.192 921.292 597.191 921.292 615.692Z" fill="#FC8A8B"/>
<path d="M687.292 563.192C687.292 580.313 701.171 594.192 718.292 594.192C735.413 594.192 749.292 580.313 749.292 563.192C749.292 546.072 735.413 532.192 718.292 532.192C701.171 532.192 687.292 546.072 687.292 563.192Z" fill="#3A2910"/>
<path d="M876.292 563.192C876.292 580.313 890.171 594.192 907.292 594.192C924.413 594.192 938.292 580.313 938.292 563.192C938.292 546.072 924.413 532.192 907.292 532.192C890.171 532.192 876.292 546.072 876.292 563.192Z" fill="#3A2910"/>
<defs>
<linearGradient id="paint0_linear_30_3" x1="445.146" y1="872.489" x2="514.5" y2="337" gradientUnits="userSpaceOnUse">
<stop stop-color="#3D3D3D"/>
<stop offset="1" stop-color="#A3A3A3"/>
</linearGradient>
<linearGradient id="paint1_linear_30_3" x1="578" y1="826.5" x2="547.5" y2="316" gradientUnits="userSpaceOnUse">
<stop stop-color="#FD723B"/>
<stop offset="1" stop-color="#AEFF00"/>
</linearGradient>
</defs>
</svg>
