<?xml version="1.0" encoding="UTF-8"?>
<svg width="62.708mm" height="84.274mm" version="1.1" viewBox="0 0 62.708 84.274" xmlns="http://www.w3.org/2000/svg" xmlns:cc="http://creativecommons.org/ns#" xmlns:dc="http://purl.org/dc/elements/1.1/" xmlns:rdf="http://www.w3.org/1999/02/22-rdf-syntax-ns#">
    <defs>
        <linearGradient id="a" x1="48.292" x2="107.2" y1="35.828" y2="116.08" gradientTransform="translate(33.428 -23.93)" gradientUnits="userSpaceOnUse">
            <stop stop-color="#800000" offset="0"/>
            <stop stop-color="#f00" offset="1"/>
        </linearGradient>
        <linearGradient id="b" x1="68.624" x2="76.952" y1="142.4" y2="151.88" gradientTransform="translate(57.229 -110.73)" gradientUnits="userSpaceOnUse">
            <stop stop-color="#a80000" offset="0"/>
            <stop stop-color="#ff0" stop-opacity=".99628" offset="1"/>
        </linearGradient>
    </defs>
    <metadata>
        <rdf:RDF>
            <cc:Work rdf:about="">
                <dc:format>image/svg+xml</dc:format>
                <dc:type rdf:resource="http://purl.org/dc/dcmitype/StillImage"/>
                <dc:title/>
            </cc:Work>
        </rdf:RDF>
    </metadata>
    <g transform="translate(-43.076 -30.377)">
        <path d="m96.969 56.183s-11.596-8.1114-6.546 1.2838c-13.432-16.282-19.766-13.376-13.938-3.2813-8.2337-7.7228-14.713-6.0023-9.0909 3.7017-9.199-7.6534-8.124 0.13025-8.124 0.13025 4.5217 9.5783 20.523 8.499 29.118 12.214 10.138 3.9365 17.233 11.376 17.396 21.886-1.8642 12.941-18.499 22.557-29.763 22.534-9.2934-0.13159-10.538-12.863-26.536-8.5618 9.1969-13.155 47.426-5.211 45.494-21.935-0.31709-2.7459-8.0937-1.8042-8.0937-1.8042 13.876-4.6491 0 0-10.959-2.8253 12.342-10.237 0 0-14.18-1.5272 11.165-11.132-6.4886-20.678-12.748-19.033 2.7318-6.585 15.893-21.124 27.868-21.238 5.2181 0 10.004 0.49854 14.358 1.4956 2.4624 0.5639 5.6519 11.94 5.7427 16.961 0.09084 5.0203-4.1898 6.7961-4.4255 8.4774 1.6001 0.05402 9.5744-4.5086 9.7155-5.8839-2.395-0.09177-8.4693 0.23514-9.1392 0.62726 0.14371 0.76765 5.9143 5.5046 7.6765 5.677 0.23926-1.7677-3.8273-8.8978-3.8273-8.8978" fill="#000001" style="paint-order:stroke markers fill"/>
        <g transform="translate(-37.551,18.38)" stroke-width="2.5525" aria-label="S">
            <path d="m130.4 32.253s-11.596-8.1114-6.546 1.2838c-13.432-16.282-19.766-13.376-13.938-3.2813-8.2337-7.7228-14.713-6.0023-9.0909 3.7017-9.199-7.6534-8.124 0.13025-8.124 0.13025 4.5217 9.5783 20.523 8.499 29.118 12.214 10.138 3.9365 17.233 11.376 17.396 21.886-1.8642 12.941-18.499 22.557-29.763 22.534-9.2934-0.13159-10.538-12.863-26.536-8.5618 9.1969-13.155 47.426-5.211 45.494-21.935-0.31709-2.7459-8.0937-1.8042-8.0937-1.8042 13.876-4.6491 0 0-10.959-2.8253 12.342-10.237 0 0-14.18-1.5272 11.165-11.132-6.4886-20.678-12.748-19.033 2.7318-6.585 15.893-21.124 27.868-21.238 5.2181 0 10.004 0.49854 14.358 1.4956 2.4624 0.5639 5.6519 11.94 5.7427 16.961 0.0908 5.0203-4.1898 6.7961-4.4255 8.4774 1.6001 0.05402 9.5744-4.5086 9.7155-5.8839-2.395-0.09177-8.4693 0.23514-9.1392 0.62726 0.14371 0.76765 5.9143 5.5046 7.6765 5.677 0.23926-1.7677-3.8273-8.8978-3.8273-8.8978" fill="url(#a)" stroke="#000" stroke-linejoin="round" stroke-width="3.6" style="paint-order:stroke markers fill"/>
            <path d="m130.4 32.253c-0.0574 0.0422-0.0276 0.13012-0.0369 0.19202-0.0104 0.84992-0.14705 1.7048-0.43494 2.507-0.96432 0.0836-1.9351 0.14388-2.8891 0.31898-0.17067 0.0388-0.35131 0.0653-0.50485 0.15313-0.0455 0.0663 0.0284 0.1417 0.0569 0.20084 0.25446 0.38784 0.60501 0.69851 0.93381 1.0212 0.30328 0.28727 0.61334 0.56749 0.93226 0.83733-0.59662 0.7382-1.2953 1.3869-1.9133 2.1076-0.26673 0.32274-0.53119 0.6764-0.60914 1.0977 7e-3 0.078 0.10623 0.0416 0.16108 0.0469 0.3927-0.0394 0.7659-0.18182 1.1347-0.31447 0.96586-0.36964 1.8886-0.8414 2.8017-1.3243 0.0896-0.048 0.17895-0.0965 0.26826-0.14505 0.89687 0.65814 1.8118 1.3012 2.8031 1.8107 0.34381 0.16746 0.69725 0.33816 1.0791 0.39412 0.088 5e-3 0.0846-0.10783 0.0825-0.16829-7e-3 -0.50737-0.16266-0.99742-0.31711-1.476-0.24775-0.74082-0.56359-1.4561-0.87743-2.1705-0.0448-0.0545 0.0145-0.0775 0.0563-0.10453 0.69726-0.4658 1.3787-0.96213 1.9895-1.5384 0.22162-0.2211 0.44798-0.45445 0.57251-0.74631 0.0145-0.0518 0.0626-0.15385-0.0201-0.1626-0.54867-0.0253-1.0983-7e-3 -1.6474-7e-3 -0.7214 1.1e-4 -1.4446 0.0351-2.1635 0.0606-0.0466-0.035-0.0648-0.11796-0.1011-0.1701-0.4168-0.79065-0.8328-1.5822-1.2778-2.3574-0.0193-0.0278-0.0355-0.0753-0.0792-0.063z" fill="url(#b)" style="paint-order:stroke markers fill"/>
        </g>
    </g>
</svg>
